<svg xmlns="http://www.w3.org/2000/svg" baseProfile="full" version="1.1" width="1650px" height="840px" style="fill: none; width: 1650px; height: 840px;"><path d="" style="stroke-width: 15; stroke-linecap: round; stroke-linejoin: round; stroke: rgb(106, 106, 106); fill: none;"/><path d="" style="stroke-width: 15; stroke-linecap: round; stroke-linejoin: round; stroke: rgb(74, 74, 74); fill: none;"/><path d="M1620,60 A300,300 0 0,0 1320,360 M1620,660 A300,300 0 0,1 1320,360 M1200,60 L1200,60 L1200,780 M900,60 L900,60 L1080,300 L900,480 L1080,720 M1620,660 L1620,660 L1620,60 M1620,780 L1620,780 L1620,660 M780,60 L780,60 L780,780 L540,780 L540,60 M780,360 L780,360 L540,360 M420,60 L420,60 L420,780 M780,60 L780,60 L540,60 M180,240 A60,60 0 0,0 120,300 A60,60 0 0,0 180,360 A60,60 0 0,0 240,300 A60,60 0 0,0 180,240 M150,270 L210,270 L210,330 L150,330 L150,270 L150,270 M150,330 L150,330 L210,270 M210,330 L210,330 L150,270 M180,480 A60,60 0 0,1 240,540 A60,60 0 0,1 180,600 A60,60 0 0,1 120,540 A60,60 0 0,1 180,480 M135,540 A45,45 0 0,1 180,495 A45,45 0 0,1 225,540 A45,45 0 0,1 180,585 A45,45 0 0,1 135,540 M150,540 A30,30 0 0,1 180,510 A30,30 0 0,1 210,540 A30,30 0 0,1 180,570 A30,30 0 0,1 150,540 M210,525 L210,525 L150,555 " style="stroke-width: 33; stroke-linecap: round; stroke-linejoin: bevel; stroke: rgb(10, 10, 10); fill: none;"/></svg>