<svg xmlns="http://www.w3.org/2000/svg" baseProfile="full" version="1.1" width="1650px" height="840px" style="fill: none; width: 1650px; height: 840px;"><path d="" style="stroke-width: 15; stroke-linecap: round; stroke-linejoin: round; stroke: rgb(106, 106, 106); fill: none;"/><path d="" style="stroke-width: 15; stroke-linecap: round; stroke-linejoin: round; stroke: rgb(74, 74, 74); fill: none;"/><path d="M1620,780 L1620,780 L1620,120 L1500,240 L1380,120 M1320,450 A120,330 0 0,0 1200,120 A120,330 0 0,0 1080,450 A120,345 0 0,0 1200,795 A120,345 0 0,0 1320,450 M990,780 L990,780 L990,120 L990,120 L780,150 M990,570 L990,570 L780,630 M990,345 L990,345 L780,390 M690,180 L690,180 L450,120 M570,780 L570,780 L570,150 M330,120 L330,120 L330,780 M15,120 A225,330 0 0,1 240,450 A225,330 0 0,1 15,780 " style="stroke-width: 35; stroke-linecap: round; stroke-linejoin: round; stroke: rgb(234, 105, 98); fill: none;"/></svg>