<?xml version="1.0" encoding="utf-8" standalone="no"?>
<!DOCTYPE svg PUBLIC "-//W3C//DTD SVG 1.1//EN"
  "http://www.w3.org/Graphics/SVG/1.1/DTD/svg11.dtd">
<!-- Created with matplotlib (https://matplotlib.org/) -->
<svg height="250pt" version="1.1" viewBox="0 0 960 250" width="960pt" xmlns="http://www.w3.org/2000/svg" xmlns:xlink="http://www.w3.org/1999/xlink">
 <defs>
  <style type="text/css">
*{stroke-linecap:butt;stroke-linejoin:round;}
  </style>
 </defs>
 <g id="skills">
  <g id="patch_1">
   <path d="M 0 250 
L 960 250 
L 960 0 
L 0 0 
z
" style="fill:none;"/>
  </g>
  <g id="axes_1">
   <g id="patch_2">
    <path d="M 120 218.75 
L 864 218.75 
L 864 30 
L 120 30 
z
" style="fill:none;"/>
   </g>
   <g id="PathCollection_1">
    <path clip-path="url(#p6ef8f77b30)" d="M 149.76 193.670319 
C 151.086016 193.670319 152.357899 193.143487 153.295534 192.205853 
C 154.233168 191.268218 154.76 189.996334 154.76 188.670319 
C 154.76 187.344303 154.233168 186.072419 153.295534 185.134785 
C 152.357899 184.19715 151.086016 183.670319 149.76 183.670319 
C 148.433984 183.670319 147.162101 184.19715 146.224466 185.134785 
C 145.286832 186.072419 144.76 187.344303 144.76 188.670319 
C 144.76 189.996334 145.286832 191.268218 146.224466 192.205853 
C 147.162101 193.143487 148.433984 193.670319 149.76 193.670319 
z
" style="fill:none;stroke:#5171ff;stroke-width:2;"/>
   </g>
   <g id="PathCollection_2">
    <path clip-path="url(#p6ef8f77b30)" d="M 189.44 103.431275 
C 190.766016 103.431275 192.037899 102.904443 192.975534 101.966809 
C 193.913168 101.029174 194.44 99.75729 194.44 98.431275 
C 194.44 97.105259 193.913168 95.833376 192.975534 94.895741 
C 192.037899 93.958106 190.766016 93.431275 189.44 93.431275 
C 188.113984 93.431275 186.842101 93.958106 185.904466 94.895741 
C 184.966832 95.833376 184.44 97.105259 184.44 98.431275 
C 184.44 99.75729 184.966832 101.029174 185.904466 101.966809 
C 186.842101 102.904443 188.113984 103.431275 189.44 103.431275 
z
" style="fill:none;stroke:#5171ff;stroke-width:2;"/>
   </g>
   <g id="PathCollection_3">
    <path clip-path="url(#p6ef8f77b30)" d="M 229.12 73.351594 
C 230.446016 73.351594 231.717899 72.824762 232.655534 71.887128 
C 233.593168 70.949493 234.12 69.677609 234.12 68.351594 
C 234.12 67.025578 233.593168 65.753694 232.655534 64.81606 
C 231.717899 63.878425 230.446016 63.351594 229.12 63.351594 
C 227.793984 63.351594 226.522101 63.878425 225.584466 64.81606 
C 224.646832 65.753694 224.12 67.025578 224.12 68.351594 
C 224.12 69.677609 224.646832 70.949493 225.584466 71.887128 
C 226.522101 72.824762 227.793984 73.351594 229.12 73.351594 
z
" style="fill:none;stroke:#5171ff;stroke-width:2;"/>
   </g>
   <g id="PathCollection_4">
    <path clip-path="url(#p6ef8f77b30)" d="M 467.2 103.431275 
C 468.526015 103.431275 469.797899 102.904443 470.735534 101.966809 
C 471.673168 101.029174 472.2 99.75729 472.2 98.431275 
C 472.2 97.105259 471.673168 95.833376 470.735534 94.895741 
C 469.797899 93.958106 468.526015 93.431275 467.2 93.431275 
C 465.873985 93.431275 464.602101 93.958106 463.664466 94.895741 
C 462.726832 95.833376 462.2 97.105259 462.2 98.431275 
C 462.2 99.75729 462.726832 101.029174 463.664466 101.966809 
C 464.602101 102.904443 465.873985 103.431275 467.2 103.431275 
z
" style="fill:none;stroke:#d81e5b;stroke-width:2;"/>
   </g>
   <g id="PathCollection_5">
    <path clip-path="url(#p6ef8f77b30)" d="M 189.44 163.590637 
C 190.766016 163.590637 192.037899 163.063806 192.975534 162.126171 
C 193.913168 161.188537 194.44 159.916653 194.44 158.590637 
C 194.44 157.264622 193.913168 155.992738 192.975534 155.055104 
C 192.037899 154.117469 190.766016 153.590637 189.44 153.590637 
C 188.113984 153.590637 186.842101 154.117469 185.904466 155.055104 
C 184.966832 155.992738 184.44 157.264622 184.44 158.590637 
C 184.44 159.916653 184.966832 161.188537 185.904466 162.126171 
C 186.842101 163.063806 188.113984 163.590637 189.44 163.590637 
z
" style="fill:none;stroke:#5171ff;stroke-width:2;"/>
   </g>
   <g id="PathCollection_6">
    <path clip-path="url(#p6ef8f77b30)" d="M 625.92 88.391434 
C 627.246015 88.391434 628.517899 87.864603 629.455534 86.926968 
C 630.393168 85.989334 630.92 84.71745 630.92 83.391434 
C 630.92 82.065419 630.393168 80.793535 629.455534 79.8559 
C 628.517899 78.918266 627.246015 78.391434 625.92 78.391434 
C 624.593984 78.391434 623.322101 78.918266 622.384466 79.8559 
C 621.446832 80.793535 620.92 82.065419 620.92 83.391434 
C 620.92 84.71745 621.446832 85.989334 622.384466 86.926968 
C 623.322101 87.864603 624.593984 88.391434 625.92 88.391434 
z
" style="fill:none;stroke:#157145;stroke-width:2;"/>
   </g>
   <g id="PathCollection_7">
    <path clip-path="url(#p6ef8f77b30)" d="M 725.12 43.271912 
C 726.446016 43.271912 727.717899 42.745081 728.655534 41.807446 
C 729.593168 40.869812 730.12 39.597928 730.12 38.271912 
C 730.12 36.945897 729.593168 35.674013 728.655534 34.736378 
C 727.717899 33.798744 726.446016 33.271912 725.12 33.271912 
C 723.793984 33.271912 722.522101 33.798744 721.584466 34.736378 
C 720.646832 35.674013 720.12 36.945897 720.12 38.271912 
C 720.12 39.597928 720.646832 40.869812 721.584466 41.807446 
C 722.522101 42.745081 723.793984 43.271912 725.12 43.271912 
z
" style="fill:none;stroke:#157145;stroke-width:2;"/>
   </g>
   <g id="PathCollection_8">
    <path clip-path="url(#p6ef8f77b30)" d="M 387.84 73.351594 
C 389.166015 73.351594 390.437899 72.824762 391.375534 71.887128 
C 392.313168 70.949493 392.84 69.677609 392.84 68.351594 
C 392.84 67.025578 392.313168 65.753694 391.375534 64.81606 
C 390.437899 63.878425 389.166015 63.351594 387.84 63.351594 
C 386.513984 63.351594 385.242101 63.878425 384.304466 64.81606 
C 383.366832 65.753694 382.84 67.025578 382.84 68.351594 
C 382.84 69.677609 383.366832 70.949493 384.304466 71.887128 
C 385.242101 72.824762 386.513984 73.351594 387.84 73.351594 
z
" style="fill:none;stroke:#d81e5b;stroke-width:2;"/>
   </g>
   <g id="PathCollection_9">
    <path clip-path="url(#p6ef8f77b30)" d="M 506.88 133.510956 
C 508.206015 133.510956 509.477899 132.984125 510.415534 132.04649 
C 511.353168 131.108856 511.88 129.836972 511.88 128.510956 
C 511.88 127.184941 511.353168 125.913057 510.415534 124.975422 
C 509.477899 124.037788 508.206015 123.510956 506.88 123.510956 
C 505.553985 123.510956 504.282101 124.037788 503.344466 124.975422 
C 502.406832 125.913057 501.88 127.184941 501.88 128.510956 
C 501.88 129.836972 502.406832 131.108856 503.344466 132.04649 
C 504.282101 132.984125 505.553985 133.510956 506.88 133.510956 
z
" style="fill:none;stroke:#d81e5b;stroke-width:2;"/>
   </g>
   <g id="PathCollection_10">
    <path clip-path="url(#p6ef8f77b30)" d="M 348.16 208.710159 
C 349.486015 208.710159 350.757899 208.183328 351.695534 207.245693 
C 352.633168 206.308059 353.16 205.036175 353.16 203.710159 
C 353.16 202.384144 352.633168 201.11226 351.695534 200.174625 
C 350.757899 199.236991 349.486015 198.710159 348.16 198.710159 
C 346.833984 198.710159 345.562101 199.236991 344.624466 200.174625 
C 343.686832 201.11226 343.16 202.384144 343.16 203.710159 
C 343.16 205.036175 343.686832 206.308059 344.624466 207.245693 
C 345.562101 208.183328 346.833984 208.710159 348.16 208.710159 
z
" style="fill:none;stroke:#d81e5b;stroke-width:2;"/>
   </g>
   <g id="PathCollection_11">
    <path clip-path="url(#p6ef8f77b30)" d="M 447.36 43.271912 
C 448.686015 43.271912 449.957899 42.745081 450.895534 41.807446 
C 451.833168 40.869812 452.36 39.597928 452.36 38.271912 
C 452.36 36.945897 451.833168 35.674013 450.895534 34.736378 
C 449.957899 33.798744 448.686015 33.271912 447.36 33.271912 
C 446.033984 33.271912 444.762101 33.798744 443.824466 34.736378 
C 442.886832 35.674013 442.36 36.945897 442.36 38.271912 
C 442.36 39.597928 442.886832 40.869812 443.824466 41.807446 
C 444.762101 42.745081 446.033984 43.271912 447.36 43.271912 
z
" style="fill:none;stroke:#d81e5b;stroke-width:2;"/>
   </g>
   <g id="PathCollection_12">
    <path clip-path="url(#p6ef8f77b30)" d="M 625.92 43.271912 
C 627.246015 43.271912 628.517899 42.745081 629.455534 41.807446 
C 630.393168 40.869812 630.92 39.597928 630.92 38.271912 
C 630.92 36.945897 630.393168 35.674013 629.455534 34.736378 
C 628.517899 33.798744 627.246015 33.271912 625.92 33.271912 
C 624.593984 33.271912 623.322101 33.798744 622.384466 34.736378 
C 621.446832 35.674013 620.92 36.945897 620.92 38.271912 
C 620.92 39.597928 621.446832 40.869812 622.384466 41.807446 
C 623.322101 42.745081 624.593984 43.271912 625.92 43.271912 
z
" style="fill:none;stroke:#157145;stroke-width:2;"/>
   </g>
   <g id="PathCollection_13">
    <path clip-path="url(#p6ef8f77b30)" d="M 625.92 118.471116 
C 627.246015 118.471116 628.517899 117.944284 629.455534 117.006649 
C 630.393168 116.069015 630.92 114.797131 630.92 113.471116 
C 630.92 112.1451 630.393168 110.873216 629.455534 109.935582 
C 628.517899 108.997947 627.246015 108.471116 625.92 108.471116 
C 624.593984 108.471116 623.322101 108.997947 622.384466 109.935582 
C 621.446832 110.873216 620.92 112.1451 620.92 113.471116 
C 620.92 114.797131 621.446832 116.069015 622.384466 117.006649 
C 623.322101 117.944284 624.593984 118.471116 625.92 118.471116 
z
" style="fill:none;stroke:#157145;stroke-width:2;"/>
   </g>
   <g id="PathCollection_14">
    <path clip-path="url(#p6ef8f77b30)" d="M 467.2 163.590637 
C 468.526015 163.590637 469.797899 163.063806 470.735534 162.126171 
C 471.673168 161.188537 472.2 159.916653 472.2 158.590637 
C 472.2 157.264622 471.673168 155.992738 470.735534 155.055104 
C 469.797899 154.117469 468.526015 153.590637 467.2 153.590637 
C 465.873985 153.590637 464.602101 154.117469 463.664466 155.055104 
C 462.726832 155.992738 462.2 157.264622 462.2 158.590637 
C 462.2 159.916653 462.726832 161.188537 463.664466 162.126171 
C 464.602101 163.063806 465.873985 163.590637 467.2 163.590637 
z
" style="fill:none;stroke:#d81e5b;stroke-width:2;"/>
   </g>
   <g id="PathCollection_15">
    <path clip-path="url(#p6ef8f77b30)" d="M 467.2 208.710159 
C 468.526015 208.710159 469.797899 208.183328 470.735534 207.245693 
C 471.673168 206.308059 472.2 205.036175 472.2 203.710159 
C 472.2 202.384144 471.673168 201.11226 470.735534 200.174625 
C 469.797899 199.236991 468.526015 198.710159 467.2 198.710159 
C 465.873985 198.710159 464.602101 199.236991 463.664466 200.174625 
C 462.726832 201.11226 462.2 202.384144 462.2 203.710159 
C 462.2 205.036175 462.726832 206.308059 463.664466 207.245693 
C 464.602101 208.183328 465.873985 208.710159 467.2 208.710159 
z
" style="fill:none;stroke:#d81e5b;stroke-width:2;"/>
   </g>
   <g id="PathCollection_16">
    <path clip-path="url(#p6ef8f77b30)" d="M 506.88 73.351594 
C 508.206015 73.351594 509.477899 72.824762 510.415534 71.887128 
C 511.353168 70.949493 511.88 69.677609 511.88 68.351594 
C 511.88 67.025578 511.353168 65.753694 510.415534 64.81606 
C 509.477899 63.878425 508.206015 63.351594 506.88 63.351594 
C 505.553985 63.351594 504.282101 63.878425 503.344466 64.81606 
C 502.406832 65.753694 501.88 67.025578 501.88 68.351594 
C 501.88 69.677609 502.406832 70.949493 503.344466 71.887128 
C 504.282101 72.824762 505.553985 73.351594 506.88 73.351594 
z
" style="fill:none;stroke:#d81e5b;stroke-width:2;"/>
   </g>
   <g id="PathCollection_17">
    <path clip-path="url(#p6ef8f77b30)" d="M 744.96 88.391434 
C 746.286015 88.391434 747.557899 87.864603 748.495534 86.926968 
C 749.433168 85.989334 749.96 84.71745 749.96 83.391434 
C 749.96 82.065419 749.433168 80.793535 748.495534 79.8559 
C 747.557899 78.918266 746.286015 78.391434 744.96 78.391434 
C 743.633984 78.391434 742.362101 78.918266 741.424466 79.8559 
C 740.486832 80.793535 739.96 82.065419 739.96 83.391434 
C 739.96 84.71745 740.486832 85.989334 741.424466 86.926968 
C 742.362101 87.864603 743.633984 88.391434 744.96 88.391434 
z
" style="fill:none;stroke:#157145;stroke-width:2;"/>
   </g>
   <g id="PathCollection_18">
    <path clip-path="url(#p6ef8f77b30)" d="M 586.24 43.271912 
C 587.566016 43.271912 588.837899 42.745081 589.775534 41.807446 
C 590.713168 40.869812 591.24 39.597928 591.24 38.271912 
C 591.24 36.945897 590.713168 35.674013 589.775534 34.736378 
C 588.837899 33.798744 587.566016 33.271912 586.24 33.271912 
C 584.913984 33.271912 583.642101 33.798744 582.704466 34.736378 
C 581.766832 35.674013 581.24 36.945897 581.24 38.271912 
C 581.24 39.597928 581.766832 40.869812 582.704466 41.807446 
C 583.642101 42.745081 584.913984 43.271912 586.24 43.271912 
z
" style="fill:none;stroke:#157145;stroke-width:2;"/>
   </g>
   <g id="PathCollection_19">
    <path clip-path="url(#p6ef8f77b30)" d="M 308.48 133.510956 
C 309.806015 133.510956 311.077899 132.984125 312.015534 132.04649 
C 312.953168 131.108856 313.48 129.836972 313.48 128.510956 
C 313.48 127.184941 312.953168 125.913057 312.015534 124.975422 
C 311.077899 124.037788 309.806015 123.510956 308.48 123.510956 
C 307.153984 123.510956 305.882101 124.037788 304.944466 124.975422 
C 304.006832 125.913057 303.48 127.184941 303.48 128.510956 
C 303.48 129.836972 304.006832 131.108856 304.944466 132.04649 
C 305.882101 132.984125 307.153984 133.510956 308.48 133.510956 
z
" style="fill:none;stroke:#5171ff;stroke-width:2;"/>
   </g>
   <g id="matplotlib.axis_1">
    <g id="xtick_1">
     <g id="line2d_1">
      <defs>
       <path d="M 0 0 
L 0 3.5 
" id="m248919db0a" style="stroke:#000000;stroke-width:0.8;"/>
      </defs>
      <g>
       <use style="stroke:#000000;stroke-width:0.8;" x="229.12" xlink:href="#m248919db0a" y="218.75"/>
      </g>
     </g>
     <g id="text_1">
      <!-- Familiar -->
      <defs>
       <path d="M 9.8125 72.90625 
L 51.703125 72.90625 
L 51.703125 64.59375 
L 19.671875 64.59375 
L 19.671875 43.109375 
L 48.578125 43.109375 
L 48.578125 34.8125 
L 19.671875 34.8125 
L 19.671875 0 
L 9.8125 0 
z
" id="DejaVuSans-70"/>
       <path d="M 34.28125 27.484375 
Q 23.390625 27.484375 19.1875 25 
Q 14.984375 22.515625 14.984375 16.5 
Q 14.984375 11.71875 18.140625 8.90625 
Q 21.296875 6.109375 26.703125 6.109375 
Q 34.1875 6.109375 38.703125 11.40625 
Q 43.21875 16.703125 43.21875 25.484375 
L 43.21875 27.484375 
z
M 52.203125 31.203125 
L 52.203125 0 
L 43.21875 0 
L 43.21875 8.296875 
Q 40.140625 3.328125 35.546875 0.953125 
Q 30.953125 -1.421875 24.3125 -1.421875 
Q 15.921875 -1.421875 10.953125 3.296875 
Q 6 8.015625 6 15.921875 
Q 6 25.140625 12.171875 29.828125 
Q 18.359375 34.515625 30.609375 34.515625 
L 43.21875 34.515625 
L 43.21875 35.40625 
Q 43.21875 41.609375 39.140625 45 
Q 35.0625 48.390625 27.6875 48.390625 
Q 23 48.390625 18.546875 47.265625 
Q 14.109375 46.140625 10.015625 43.890625 
L 10.015625 52.203125 
Q 14.9375 54.109375 19.578125 55.046875 
Q 24.21875 56 28.609375 56 
Q 40.484375 56 46.34375 49.84375 
Q 52.203125 43.703125 52.203125 31.203125 
z
" id="DejaVuSans-97"/>
       <path d="M 52 44.1875 
Q 55.375 50.25 60.0625 53.125 
Q 64.75 56 71.09375 56 
Q 79.640625 56 84.28125 50.015625 
Q 88.921875 44.046875 88.921875 33.015625 
L 88.921875 0 
L 79.890625 0 
L 79.890625 32.71875 
Q 79.890625 40.578125 77.09375 44.375 
Q 74.3125 48.1875 68.609375 48.1875 
Q 61.625 48.1875 57.5625 43.546875 
Q 53.515625 38.921875 53.515625 30.90625 
L 53.515625 0 
L 44.484375 0 
L 44.484375 32.71875 
Q 44.484375 40.625 41.703125 44.40625 
Q 38.921875 48.1875 33.109375 48.1875 
Q 26.21875 48.1875 22.15625 43.53125 
Q 18.109375 38.875 18.109375 30.90625 
L 18.109375 0 
L 9.078125 0 
L 9.078125 54.6875 
L 18.109375 54.6875 
L 18.109375 46.1875 
Q 21.1875 51.21875 25.484375 53.609375 
Q 29.78125 56 35.6875 56 
Q 41.65625 56 45.828125 52.96875 
Q 50 49.953125 52 44.1875 
z
" id="DejaVuSans-109"/>
       <path d="M 9.421875 54.6875 
L 18.40625 54.6875 
L 18.40625 0 
L 9.421875 0 
z
M 9.421875 75.984375 
L 18.40625 75.984375 
L 18.40625 64.59375 
L 9.421875 64.59375 
z
" id="DejaVuSans-105"/>
       <path d="M 9.421875 75.984375 
L 18.40625 75.984375 
L 18.40625 0 
L 9.421875 0 
z
" id="DejaVuSans-108"/>
       <path d="M 41.109375 46.296875 
Q 39.59375 47.171875 37.8125 47.578125 
Q 36.03125 48 33.890625 48 
Q 26.265625 48 22.1875 43.046875 
Q 18.109375 38.09375 18.109375 28.8125 
L 18.109375 0 
L 9.078125 0 
L 9.078125 54.6875 
L 18.109375 54.6875 
L 18.109375 46.1875 
Q 20.953125 51.171875 25.484375 53.578125 
Q 30.03125 56 36.53125 56 
Q 37.453125 56 38.578125 55.875 
Q 39.703125 55.765625 41.0625 55.515625 
z
" id="DejaVuSans-114"/>
      </defs>
      <g style="fill:#5171ff;" transform="translate(201.623125 236.387812)scale(0.14 -0.14)">
       <use xlink:href="#DejaVuSans-70"/>
       <use x="48.394531" xlink:href="#DejaVuSans-97"/>
       <use x="109.673828" xlink:href="#DejaVuSans-109"/>
       <use x="207.085938" xlink:href="#DejaVuSans-105"/>
       <use x="234.869141" xlink:href="#DejaVuSans-108"/>
       <use x="262.652344" xlink:href="#DejaVuSans-105"/>
       <use x="290.435547" xlink:href="#DejaVuSans-97"/>
       <use x="351.714844" xlink:href="#DejaVuSans-114"/>
      </g>
     </g>
    </g>
    <g id="xtick_2">
     <g id="line2d_2">
      <g>
       <use style="stroke:#000000;stroke-width:0.8;" x="467.2" xlink:href="#m248919db0a" y="218.75"/>
      </g>
     </g>
     <g id="text_2">
      <!-- Explored -->
      <defs>
       <path d="M 9.8125 72.90625 
L 55.90625 72.90625 
L 55.90625 64.59375 
L 19.671875 64.59375 
L 19.671875 43.015625 
L 54.390625 43.015625 
L 54.390625 34.71875 
L 19.671875 34.71875 
L 19.671875 8.296875 
L 56.78125 8.296875 
L 56.78125 0 
L 9.8125 0 
z
" id="DejaVuSans-69"/>
       <path d="M 54.890625 54.6875 
L 35.109375 28.078125 
L 55.90625 0 
L 45.3125 0 
L 29.390625 21.484375 
L 13.484375 0 
L 2.875 0 
L 24.125 28.609375 
L 4.6875 54.6875 
L 15.28125 54.6875 
L 29.78125 35.203125 
L 44.28125 54.6875 
z
" id="DejaVuSans-120"/>
       <path d="M 18.109375 8.203125 
L 18.109375 -20.796875 
L 9.078125 -20.796875 
L 9.078125 54.6875 
L 18.109375 54.6875 
L 18.109375 46.390625 
Q 20.953125 51.265625 25.265625 53.625 
Q 29.59375 56 35.59375 56 
Q 45.5625 56 51.78125 48.09375 
Q 58.015625 40.1875 58.015625 27.296875 
Q 58.015625 14.40625 51.78125 6.484375 
Q 45.5625 -1.421875 35.59375 -1.421875 
Q 29.59375 -1.421875 25.265625 0.953125 
Q 20.953125 3.328125 18.109375 8.203125 
z
M 48.6875 27.296875 
Q 48.6875 37.203125 44.609375 42.84375 
Q 40.53125 48.484375 33.40625 48.484375 
Q 26.265625 48.484375 22.1875 42.84375 
Q 18.109375 37.203125 18.109375 27.296875 
Q 18.109375 17.390625 22.1875 11.75 
Q 26.265625 6.109375 33.40625 6.109375 
Q 40.53125 6.109375 44.609375 11.75 
Q 48.6875 17.390625 48.6875 27.296875 
z
" id="DejaVuSans-112"/>
       <path d="M 30.609375 48.390625 
Q 23.390625 48.390625 19.1875 42.75 
Q 14.984375 37.109375 14.984375 27.296875 
Q 14.984375 17.484375 19.15625 11.84375 
Q 23.34375 6.203125 30.609375 6.203125 
Q 37.796875 6.203125 41.984375 11.859375 
Q 46.1875 17.53125 46.1875 27.296875 
Q 46.1875 37.015625 41.984375 42.703125 
Q 37.796875 48.390625 30.609375 48.390625 
z
M 30.609375 56 
Q 42.328125 56 49.015625 48.375 
Q 55.71875 40.765625 55.71875 27.296875 
Q 55.71875 13.875 49.015625 6.21875 
Q 42.328125 -1.421875 30.609375 -1.421875 
Q 18.84375 -1.421875 12.171875 6.21875 
Q 5.515625 13.875 5.515625 27.296875 
Q 5.515625 40.765625 12.171875 48.375 
Q 18.84375 56 30.609375 56 
z
" id="DejaVuSans-111"/>
       <path d="M 56.203125 29.59375 
L 56.203125 25.203125 
L 14.890625 25.203125 
Q 15.484375 15.921875 20.484375 11.0625 
Q 25.484375 6.203125 34.421875 6.203125 
Q 39.59375 6.203125 44.453125 7.46875 
Q 49.3125 8.734375 54.109375 11.28125 
L 54.109375 2.78125 
Q 49.265625 0.734375 44.1875 -0.34375 
Q 39.109375 -1.421875 33.890625 -1.421875 
Q 20.796875 -1.421875 13.15625 6.1875 
Q 5.515625 13.8125 5.515625 26.8125 
Q 5.515625 40.234375 12.765625 48.109375 
Q 20.015625 56 32.328125 56 
Q 43.359375 56 49.78125 48.890625 
Q 56.203125 41.796875 56.203125 29.59375 
z
M 47.21875 32.234375 
Q 47.125 39.59375 43.09375 43.984375 
Q 39.0625 48.390625 32.421875 48.390625 
Q 24.90625 48.390625 20.390625 44.140625 
Q 15.875 39.890625 15.1875 32.171875 
z
" id="DejaVuSans-101"/>
       <path d="M 45.40625 46.390625 
L 45.40625 75.984375 
L 54.390625 75.984375 
L 54.390625 0 
L 45.40625 0 
L 45.40625 8.203125 
Q 42.578125 3.328125 38.25 0.953125 
Q 33.9375 -1.421875 27.875 -1.421875 
Q 17.96875 -1.421875 11.734375 6.484375 
Q 5.515625 14.40625 5.515625 27.296875 
Q 5.515625 40.1875 11.734375 48.09375 
Q 17.96875 56 27.875 56 
Q 33.9375 56 38.25 53.625 
Q 42.578125 51.265625 45.40625 46.390625 
z
M 14.796875 27.296875 
Q 14.796875 17.390625 18.875 11.75 
Q 22.953125 6.109375 30.078125 6.109375 
Q 37.203125 6.109375 41.296875 11.75 
Q 45.40625 17.390625 45.40625 27.296875 
Q 45.40625 37.203125 41.296875 42.84375 
Q 37.203125 48.484375 30.078125 48.484375 
Q 22.953125 48.484375 18.875 42.84375 
Q 14.796875 37.203125 14.796875 27.296875 
z
" id="DejaVuSans-100"/>
      </defs>
      <g style="fill:#d81e5b;" transform="translate(436.490781 236.387812)scale(0.14 -0.14)">
       <use xlink:href="#DejaVuSans-69"/>
       <use x="63.183594" xlink:href="#DejaVuSans-120"/>
       <use x="122.363281" xlink:href="#DejaVuSans-112"/>
       <use x="185.839844" xlink:href="#DejaVuSans-108"/>
       <use x="213.623047" xlink:href="#DejaVuSans-111"/>
       <use x="274.804688" xlink:href="#DejaVuSans-114"/>
       <use x="313.667969" xlink:href="#DejaVuSans-101"/>
       <use x="375.191406" xlink:href="#DejaVuSans-100"/>
      </g>
     </g>
    </g>
    <g id="xtick_3">
     <g id="line2d_3">
      <g>
       <use style="stroke:#000000;stroke-width:0.8;" x="705.28" xlink:href="#m248919db0a" y="218.75"/>
      </g>
     </g>
     <g id="text_3">
      <!-- Experienced -->
      <defs>
       <path d="M 54.890625 33.015625 
L 54.890625 0 
L 45.90625 0 
L 45.90625 32.71875 
Q 45.90625 40.484375 42.875 44.328125 
Q 39.84375 48.1875 33.796875 48.1875 
Q 26.515625 48.1875 22.3125 43.546875 
Q 18.109375 38.921875 18.109375 30.90625 
L 18.109375 0 
L 9.078125 0 
L 9.078125 54.6875 
L 18.109375 54.6875 
L 18.109375 46.1875 
Q 21.34375 51.125 25.703125 53.5625 
Q 30.078125 56 35.796875 56 
Q 45.21875 56 50.046875 50.171875 
Q 54.890625 44.34375 54.890625 33.015625 
z
" id="DejaVuSans-110"/>
       <path d="M 48.78125 52.59375 
L 48.78125 44.1875 
Q 44.96875 46.296875 41.140625 47.34375 
Q 37.3125 48.390625 33.40625 48.390625 
Q 24.65625 48.390625 19.8125 42.84375 
Q 14.984375 37.3125 14.984375 27.296875 
Q 14.984375 17.28125 19.8125 11.734375 
Q 24.65625 6.203125 33.40625 6.203125 
Q 37.3125 6.203125 41.140625 7.25 
Q 44.96875 8.296875 48.78125 10.40625 
L 48.78125 2.09375 
Q 45.015625 0.34375 40.984375 -0.53125 
Q 36.96875 -1.421875 32.421875 -1.421875 
Q 20.0625 -1.421875 12.78125 6.34375 
Q 5.515625 14.109375 5.515625 27.296875 
Q 5.515625 40.671875 12.859375 48.328125 
Q 20.21875 56 33.015625 56 
Q 37.15625 56 41.109375 55.140625 
Q 45.0625 54.296875 48.78125 52.59375 
z
" id="DejaVuSans-99"/>
      </defs>
      <g style="fill:#157145;" transform="translate(661.796875 236.387812)scale(0.14 -0.14)">
       <use xlink:href="#DejaVuSans-69"/>
       <use x="63.183594" xlink:href="#DejaVuSans-120"/>
       <use x="122.363281" xlink:href="#DejaVuSans-112"/>
       <use x="185.839844" xlink:href="#DejaVuSans-101"/>
       <use x="247.363281" xlink:href="#DejaVuSans-114"/>
       <use x="288.476562" xlink:href="#DejaVuSans-105"/>
       <use x="316.259766" xlink:href="#DejaVuSans-101"/>
       <use x="377.783203" xlink:href="#DejaVuSans-110"/>
       <use x="441.162109" xlink:href="#DejaVuSans-99"/>
       <use x="496.142578" xlink:href="#DejaVuSans-101"/>
       <use x="557.666016" xlink:href="#DejaVuSans-100"/>
      </g>
     </g>
    </g>
    <g id="xtick_4">
     <g id="line2d_4">
      <g>
       <use style="stroke:#000000;stroke-width:0.8;" x="864" xlink:href="#m248919db0a" y="218.75"/>
      </g>
     </g>
    </g>
   </g>
   <g id="matplotlib.axis_2">
    <g id="ytick_1">
     <g id="line2d_5">
      <defs>
       <path d="M 0 0 
L -3.5 0 
" id="m53db3f0c63" style="stroke:#000000;stroke-width:0.8;"/>
      </defs>
      <g>
       <use style="stroke:#000000;stroke-width:0.8;" x="120" xlink:href="#m53db3f0c63" y="218.75"/>
      </g>
     </g>
     <g id="text_4">
      <!-- Coursework -->
      <defs>
       <path d="M 64.40625 67.28125 
L 64.40625 56.890625 
Q 59.421875 61.53125 53.78125 63.8125 
Q 48.140625 66.109375 41.796875 66.109375 
Q 29.296875 66.109375 22.65625 58.46875 
Q 16.015625 50.828125 16.015625 36.375 
Q 16.015625 21.96875 22.65625 14.328125 
Q 29.296875 6.6875 41.796875 6.6875 
Q 48.140625 6.6875 53.78125 8.984375 
Q 59.421875 11.28125 64.40625 15.921875 
L 64.40625 5.609375 
Q 59.234375 2.09375 53.4375 0.328125 
Q 47.65625 -1.421875 41.21875 -1.421875 
Q 24.65625 -1.421875 15.125 8.703125 
Q 5.609375 18.84375 5.609375 36.375 
Q 5.609375 53.953125 15.125 64.078125 
Q 24.65625 74.21875 41.21875 74.21875 
Q 47.75 74.21875 53.53125 72.484375 
Q 59.328125 70.75 64.40625 67.28125 
z
" id="DejaVuSans-67"/>
       <path d="M 8.5 21.578125 
L 8.5 54.6875 
L 17.484375 54.6875 
L 17.484375 21.921875 
Q 17.484375 14.15625 20.5 10.265625 
Q 23.53125 6.390625 29.59375 6.390625 
Q 36.859375 6.390625 41.078125 11.03125 
Q 45.3125 15.671875 45.3125 23.6875 
L 45.3125 54.6875 
L 54.296875 54.6875 
L 54.296875 0 
L 45.3125 0 
L 45.3125 8.40625 
Q 42.046875 3.421875 37.71875 1 
Q 33.40625 -1.421875 27.6875 -1.421875 
Q 18.265625 -1.421875 13.375 4.4375 
Q 8.5 10.296875 8.5 21.578125 
z
M 31.109375 56 
z
" id="DejaVuSans-117"/>
       <path d="M 44.28125 53.078125 
L 44.28125 44.578125 
Q 40.484375 46.53125 36.375 47.5 
Q 32.28125 48.484375 27.875 48.484375 
Q 21.1875 48.484375 17.84375 46.4375 
Q 14.5 44.390625 14.5 40.28125 
Q 14.5 37.15625 16.890625 35.375 
Q 19.28125 33.59375 26.515625 31.984375 
L 29.59375 31.296875 
Q 39.15625 29.25 43.1875 25.515625 
Q 47.21875 21.78125 47.21875 15.09375 
Q 47.21875 7.46875 41.1875 3.015625 
Q 35.15625 -1.421875 24.609375 -1.421875 
Q 20.21875 -1.421875 15.453125 -0.5625 
Q 10.6875 0.296875 5.421875 2 
L 5.421875 11.28125 
Q 10.40625 8.6875 15.234375 7.390625 
Q 20.0625 6.109375 24.8125 6.109375 
Q 31.15625 6.109375 34.5625 8.28125 
Q 37.984375 10.453125 37.984375 14.40625 
Q 37.984375 18.0625 35.515625 20.015625 
Q 33.0625 21.96875 24.703125 23.78125 
L 21.578125 24.515625 
Q 13.234375 26.265625 9.515625 29.90625 
Q 5.8125 33.546875 5.8125 39.890625 
Q 5.8125 47.609375 11.28125 51.796875 
Q 16.75 56 26.8125 56 
Q 31.78125 56 36.171875 55.265625 
Q 40.578125 54.546875 44.28125 53.078125 
z
" id="DejaVuSans-115"/>
       <path d="M 4.203125 54.6875 
L 13.1875 54.6875 
L 24.421875 12.015625 
L 35.59375 54.6875 
L 46.1875 54.6875 
L 57.421875 12.015625 
L 68.609375 54.6875 
L 77.59375 54.6875 
L 63.28125 0 
L 52.6875 0 
L 40.921875 44.828125 
L 29.109375 0 
L 18.5 0 
z
" id="DejaVuSans-119"/>
       <path d="M 9.078125 75.984375 
L 18.109375 75.984375 
L 18.109375 31.109375 
L 44.921875 54.6875 
L 56.390625 54.6875 
L 27.390625 29.109375 
L 57.625 0 
L 45.90625 0 
L 18.109375 26.703125 
L 18.109375 0 
L 9.078125 0 
z
" id="DejaVuSans-107"/>
      </defs>
      <g style="fill:#a4778b;" transform="translate(30.244687 224.068906)scale(0.14 -0.14)">
       <use xlink:href="#DejaVuSans-67"/>
       <use x="69.824219" xlink:href="#DejaVuSans-111"/>
       <use x="131.005859" xlink:href="#DejaVuSans-117"/>
       <use x="194.384766" xlink:href="#DejaVuSans-114"/>
       <use x="235.498047" xlink:href="#DejaVuSans-115"/>
       <use x="287.597656" xlink:href="#DejaVuSans-101"/>
       <use x="349.121094" xlink:href="#DejaVuSans-119"/>
       <use x="430.908203" xlink:href="#DejaVuSans-111"/>
       <use x="492.089844" xlink:href="#DejaVuSans-114"/>
       <use x="533.203125" xlink:href="#DejaVuSans-107"/>
      </g>
     </g>
    </g>
    <g id="ytick_2">
     <g id="line2d_6">
      <g>
       <use style="stroke:#000000;stroke-width:0.8;" x="120" xlink:href="#m53db3f0c63" y="128.510956"/>
      </g>
     </g>
     <g id="text_5">
      <!-- Few -->
      <g style="fill:#a4778b;" transform="translate(85.654062 127.055175)scale(0.14 -0.14)">
       <use xlink:href="#DejaVuSans-70"/>
       <use x="52.019531" xlink:href="#DejaVuSans-101"/>
       <use x="113.542969" xlink:href="#DejaVuSans-119"/>
      </g>
      <!-- Projects -->
      <defs>
       <path d="M 19.671875 64.796875 
L 19.671875 37.40625 
L 32.078125 37.40625 
Q 38.96875 37.40625 42.71875 40.96875 
Q 46.484375 44.53125 46.484375 51.125 
Q 46.484375 57.671875 42.71875 61.234375 
Q 38.96875 64.796875 32.078125 64.796875 
z
M 9.8125 72.90625 
L 32.078125 72.90625 
Q 44.34375 72.90625 50.609375 67.359375 
Q 56.890625 61.8125 56.890625 51.125 
Q 56.890625 40.328125 50.609375 34.8125 
Q 44.34375 29.296875 32.078125 29.296875 
L 19.671875 29.296875 
L 19.671875 0 
L 9.8125 0 
z
" id="DejaVuSans-80"/>
       <path d="M 9.421875 54.6875 
L 18.40625 54.6875 
L 18.40625 -0.984375 
Q 18.40625 -11.421875 14.421875 -16.109375 
Q 10.453125 -20.796875 1.609375 -20.796875 
L -1.8125 -20.796875 
L -1.8125 -13.1875 
L 0.59375 -13.1875 
Q 5.71875 -13.1875 7.5625 -10.8125 
Q 9.421875 -8.453125 9.421875 -0.984375 
z
M 9.421875 75.984375 
L 18.40625 75.984375 
L 18.40625 64.59375 
L 9.421875 64.59375 
z
" id="DejaVuSans-106"/>
       <path d="M 18.3125 70.21875 
L 18.3125 54.6875 
L 36.8125 54.6875 
L 36.8125 47.703125 
L 18.3125 47.703125 
L 18.3125 18.015625 
Q 18.3125 11.328125 20.140625 9.421875 
Q 21.96875 7.515625 27.59375 7.515625 
L 36.8125 7.515625 
L 36.8125 0 
L 27.59375 0 
Q 17.1875 0 13.234375 3.875 
Q 9.28125 7.765625 9.28125 18.015625 
L 9.28125 47.703125 
L 2.6875 47.703125 
L 2.6875 54.6875 
L 9.28125 54.6875 
L 9.28125 70.21875 
z
" id="DejaVuSans-116"/>
      </defs>
      <g style="fill:#a4778b;" transform="translate(57.81375 142.732112)scale(0.14 -0.14)">
       <use xlink:href="#DejaVuSans-80"/>
       <use x="58.552734" xlink:href="#DejaVuSans-114"/>
       <use x="97.416016" xlink:href="#DejaVuSans-111"/>
       <use x="158.597656" xlink:href="#DejaVuSans-106"/>
       <use x="186.380859" xlink:href="#DejaVuSans-101"/>
       <use x="247.904297" xlink:href="#DejaVuSans-99"/>
       <use x="302.884766" xlink:href="#DejaVuSans-116"/>
       <use x="342.09375" xlink:href="#DejaVuSans-115"/>
      </g>
     </g>
    </g>
    <g id="ytick_3">
     <g id="line2d_7">
      <g>
       <use style="stroke:#000000;stroke-width:0.8;" x="120" xlink:href="#m53db3f0c63" y="38.271912"/>
      </g>
     </g>
     <g id="text_6">
      <!-- Several -->
      <defs>
       <path d="M 53.515625 70.515625 
L 53.515625 60.890625 
Q 47.90625 63.578125 42.921875 64.890625 
Q 37.9375 66.21875 33.296875 66.21875 
Q 25.25 66.21875 20.875 63.09375 
Q 16.5 59.96875 16.5 54.203125 
Q 16.5 49.359375 19.40625 46.890625 
Q 22.3125 44.4375 30.421875 42.921875 
L 36.375 41.703125 
Q 47.40625 39.59375 52.65625 34.296875 
Q 57.90625 29 57.90625 20.125 
Q 57.90625 9.515625 50.796875 4.046875 
Q 43.703125 -1.421875 29.984375 -1.421875 
Q 24.8125 -1.421875 18.96875 -0.25 
Q 13.140625 0.921875 6.890625 3.21875 
L 6.890625 13.375 
Q 12.890625 10.015625 18.65625 8.296875 
Q 24.421875 6.59375 29.984375 6.59375 
Q 38.421875 6.59375 43.015625 9.90625 
Q 47.609375 13.234375 47.609375 19.390625 
Q 47.609375 24.75 44.3125 27.78125 
Q 41.015625 30.8125 33.5 32.328125 
L 27.484375 33.5 
Q 16.453125 35.6875 11.515625 40.375 
Q 6.59375 45.0625 6.59375 53.421875 
Q 6.59375 63.09375 13.40625 68.65625 
Q 20.21875 74.21875 32.171875 74.21875 
Q 37.3125 74.21875 42.625 73.28125 
Q 47.953125 72.359375 53.515625 70.515625 
z
" id="DejaVuSans-83"/>
       <path d="M 2.984375 54.6875 
L 12.5 54.6875 
L 29.59375 8.796875 
L 46.6875 54.6875 
L 56.203125 54.6875 
L 35.6875 0 
L 23.484375 0 
z
" id="DejaVuSans-118"/>
      </defs>
      <g style="fill:#a4778b;" transform="translate(60.373125 36.816131)scale(0.14 -0.14)">
       <use xlink:href="#DejaVuSans-83"/>
       <use x="63.476562" xlink:href="#DejaVuSans-101"/>
       <use x="125" xlink:href="#DejaVuSans-118"/>
       <use x="184.179688" xlink:href="#DejaVuSans-101"/>
       <use x="245.703125" xlink:href="#DejaVuSans-114"/>
       <use x="286.816406" xlink:href="#DejaVuSans-97"/>
       <use x="348.095703" xlink:href="#DejaVuSans-108"/>
      </g>
      <!-- Projects -->
      <g style="fill:#a4778b;" transform="translate(57.81375 52.493069)scale(0.14 -0.14)">
       <use xlink:href="#DejaVuSans-80"/>
       <use x="58.552734" xlink:href="#DejaVuSans-114"/>
       <use x="97.416016" xlink:href="#DejaVuSans-111"/>
       <use x="158.597656" xlink:href="#DejaVuSans-106"/>
       <use x="186.380859" xlink:href="#DejaVuSans-101"/>
       <use x="247.904297" xlink:href="#DejaVuSans-99"/>
       <use x="302.884766" xlink:href="#DejaVuSans-116"/>
       <use x="342.09375" xlink:href="#DejaVuSans-115"/>
      </g>
     </g>
    </g>
   </g>
   <g id="patch_3">
    <path d="M 120 218.75 
L 120 30 
" style="fill:none;stroke:var(--text-color);stroke-dasharray:0.1,6;stroke-dashoffset:0;stroke-linecap:square;stroke-linejoin:miter;stroke-width:2;"/>
   </g>
   <g id="patch_4">
    <path d="M 120 218.75 
L 864 218.75 
" style="fill:none;stroke:var(--text-color);stroke-dasharray:0.1,6;stroke-dashoffset:0;stroke-linecap:square;stroke-linejoin:miter;stroke-width:2;"/>
   </g>
   <g id="text_7">
    <!-- PySpark -->
    <defs>
     <path d="M 32.171875 -5.078125 
Q 28.375 -14.84375 24.75 -17.8125 
Q 21.140625 -20.796875 15.09375 -20.796875 
L 7.90625 -20.796875 
L 7.90625 -13.28125 
L 13.1875 -13.28125 
Q 16.890625 -13.28125 18.9375 -11.515625 
Q 21 -9.765625 23.484375 -3.21875 
L 25.09375 0.875 
L 2.984375 54.6875 
L 12.5 54.6875 
L 29.59375 11.921875 
L 46.6875 54.6875 
L 56.203125 54.6875 
z
" id="DejaVuSans-121"/>
    </defs>
    <g style="fill:var(--text-color);" transform="translate(159.68 194.686255)scale(0.14 -0.14)">
     <use xlink:href="#DejaVuSans-80"/>
     <use x="60.302734" xlink:href="#DejaVuSans-121"/>
     <use x="119.482422" xlink:href="#DejaVuSans-83"/>
     <use x="182.958984" xlink:href="#DejaVuSans-112"/>
     <use x="246.435547" xlink:href="#DejaVuSans-97"/>
     <use x="307.714844" xlink:href="#DejaVuSans-114"/>
     <use x="348.828125" xlink:href="#DejaVuSans-107"/>
    </g>
   </g>
   <g id="text_8">
    <!-- AWS -->
    <defs>
     <path d="M 34.1875 63.1875 
L 20.796875 26.90625 
L 47.609375 26.90625 
z
M 28.609375 72.90625 
L 39.796875 72.90625 
L 67.578125 0 
L 57.328125 0 
L 50.6875 18.703125 
L 17.828125 18.703125 
L 11.1875 0 
L 0.78125 0 
z
" id="DejaVuSans-65"/>
     <path d="M 3.328125 72.90625 
L 13.28125 72.90625 
L 28.609375 11.28125 
L 43.890625 72.90625 
L 54.984375 72.90625 
L 70.3125 11.28125 
L 85.59375 72.90625 
L 95.609375 72.90625 
L 77.296875 0 
L 64.890625 0 
L 49.515625 63.28125 
L 33.984375 0 
L 21.578125 0 
z
" id="DejaVuSans-87"/>
    </defs>
    <g style="fill:var(--text-color);" transform="translate(199.36 104.447211)scale(0.14 -0.14)">
     <use xlink:href="#DejaVuSans-65"/>
     <use x="62.908203" xlink:href="#DejaVuSans-87"/>
     <use x="161.785156" xlink:href="#DejaVuSans-83"/>
    </g>
   </g>
   <g id="text_9">
    <!-- IoT -->
    <defs>
     <path d="M 9.8125 72.90625 
L 19.671875 72.90625 
L 19.671875 0 
L 9.8125 0 
z
" id="DejaVuSans-73"/>
     <path d="M -0.296875 72.90625 
L 61.375 72.90625 
L 61.375 64.59375 
L 35.5 64.59375 
L 35.5 0 
L 25.59375 0 
L 25.59375 64.59375 
L -0.296875 64.59375 
z
" id="DejaVuSans-84"/>
    </defs>
    <g style="fill:var(--text-color);" transform="translate(239.04 74.36753)scale(0.14 -0.14)">
     <use xlink:href="#DejaVuSans-73"/>
     <use x="29.492188" xlink:href="#DejaVuSans-111"/>
     <use x="90.673828" xlink:href="#DejaVuSans-84"/>
    </g>
   </g>
   <g id="text_10">
    <!-- Kubernetes -->
    <defs>
     <path d="M 9.8125 72.90625 
L 19.671875 72.90625 
L 19.671875 42.09375 
L 52.390625 72.90625 
L 65.09375 72.90625 
L 28.90625 38.921875 
L 67.671875 0 
L 54.6875 0 
L 19.671875 35.109375 
L 19.671875 0 
L 9.8125 0 
z
" id="DejaVuSans-75"/>
     <path d="M 48.6875 27.296875 
Q 48.6875 37.203125 44.609375 42.84375 
Q 40.53125 48.484375 33.40625 48.484375 
Q 26.265625 48.484375 22.1875 42.84375 
Q 18.109375 37.203125 18.109375 27.296875 
Q 18.109375 17.390625 22.1875 11.75 
Q 26.265625 6.109375 33.40625 6.109375 
Q 40.53125 6.109375 44.609375 11.75 
Q 48.6875 17.390625 48.6875 27.296875 
z
M 18.109375 46.390625 
Q 20.953125 51.265625 25.265625 53.625 
Q 29.59375 56 35.59375 56 
Q 45.5625 56 51.78125 48.09375 
Q 58.015625 40.1875 58.015625 27.296875 
Q 58.015625 14.40625 51.78125 6.484375 
Q 45.5625 -1.421875 35.59375 -1.421875 
Q 29.59375 -1.421875 25.265625 0.953125 
Q 20.953125 3.328125 18.109375 8.203125 
L 18.109375 0 
L 9.078125 0 
L 9.078125 75.984375 
L 18.109375 75.984375 
z
" id="DejaVuSans-98"/>
    </defs>
    <g style="fill:var(--text-color);" transform="translate(477.12 104.447211)scale(0.14 -0.14)">
     <use xlink:href="#DejaVuSans-75"/>
     <use x="60.576172" xlink:href="#DejaVuSans-117"/>
     <use x="123.955078" xlink:href="#DejaVuSans-98"/>
     <use x="187.431641" xlink:href="#DejaVuSans-101"/>
     <use x="248.955078" xlink:href="#DejaVuSans-114"/>
     <use x="288.318359" xlink:href="#DejaVuSans-110"/>
     <use x="351.697266" xlink:href="#DejaVuSans-101"/>
     <use x="413.220703" xlink:href="#DejaVuSans-116"/>
     <use x="452.429688" xlink:href="#DejaVuSans-101"/>
     <use x="513.953125" xlink:href="#DejaVuSans-115"/>
    </g>
   </g>
   <g id="text_11">
    <!-- System Verilog -->
    <defs>
     <path id="DejaVuSans-32"/>
     <path d="M 28.609375 0 
L 0.78125 72.90625 
L 11.078125 72.90625 
L 34.1875 11.53125 
L 57.328125 72.90625 
L 67.578125 72.90625 
L 39.796875 0 
z
" id="DejaVuSans-86"/>
     <path d="M 45.40625 27.984375 
Q 45.40625 37.75 41.375 43.109375 
Q 37.359375 48.484375 30.078125 48.484375 
Q 22.859375 48.484375 18.828125 43.109375 
Q 14.796875 37.75 14.796875 27.984375 
Q 14.796875 18.265625 18.828125 12.890625 
Q 22.859375 7.515625 30.078125 7.515625 
Q 37.359375 7.515625 41.375 12.890625 
Q 45.40625 18.265625 45.40625 27.984375 
z
M 54.390625 6.78125 
Q 54.390625 -7.171875 48.1875 -13.984375 
Q 42 -20.796875 29.203125 -20.796875 
Q 24.46875 -20.796875 20.265625 -20.09375 
Q 16.0625 -19.390625 12.109375 -17.921875 
L 12.109375 -9.1875 
Q 16.0625 -11.328125 19.921875 -12.34375 
Q 23.78125 -13.375 27.78125 -13.375 
Q 36.625 -13.375 41.015625 -8.765625 
Q 45.40625 -4.15625 45.40625 5.171875 
L 45.40625 9.625 
Q 42.625 4.78125 38.28125 2.390625 
Q 33.9375 0 27.875 0 
Q 17.828125 0 11.671875 7.65625 
Q 5.515625 15.328125 5.515625 27.984375 
Q 5.515625 40.671875 11.671875 48.328125 
Q 17.828125 56 27.875 56 
Q 33.9375 56 38.28125 53.609375 
Q 42.625 51.21875 45.40625 46.390625 
L 45.40625 54.6875 
L 54.390625 54.6875 
z
" id="DejaVuSans-103"/>
    </defs>
    <g style="fill:var(--text-color);" transform="translate(199.36 164.606574)scale(0.14 -0.14)">
     <use xlink:href="#DejaVuSans-83"/>
     <use x="63.476562" xlink:href="#DejaVuSans-121"/>
     <use x="122.65625" xlink:href="#DejaVuSans-115"/>
     <use x="174.755859" xlink:href="#DejaVuSans-116"/>
     <use x="213.964844" xlink:href="#DejaVuSans-101"/>
     <use x="275.488281" xlink:href="#DejaVuSans-109"/>
     <use x="372.900391" xlink:href="#DejaVuSans-32"/>
     <use x="404.6875" xlink:href="#DejaVuSans-86"/>
     <use x="465.345703" xlink:href="#DejaVuSans-101"/>
     <use x="526.869141" xlink:href="#DejaVuSans-114"/>
     <use x="567.982422" xlink:href="#DejaVuSans-105"/>
     <use x="595.765625" xlink:href="#DejaVuSans-108"/>
     <use x="623.548828" xlink:href="#DejaVuSans-111"/>
     <use x="684.730469" xlink:href="#DejaVuSans-103"/>
    </g>
   </g>
   <g id="text_12">
    <!-- Computer -->
    <g style="fill:var(--text-color);" transform="translate(635.84 73.730433)scale(0.14 -0.14)">
     <use xlink:href="#DejaVuSans-67"/>
     <use x="69.824219" xlink:href="#DejaVuSans-111"/>
     <use x="131.005859" xlink:href="#DejaVuSans-109"/>
     <use x="228.417969" xlink:href="#DejaVuSans-112"/>
     <use x="291.894531" xlink:href="#DejaVuSans-117"/>
     <use x="355.273438" xlink:href="#DejaVuSans-116"/>
     <use x="394.482422" xlink:href="#DejaVuSans-101"/>
     <use x="456.005859" xlink:href="#DejaVuSans-114"/>
    </g>
    <!-- Vision -->
    <g style="fill:var(--text-color);" transform="translate(635.84 89.407371)scale(0.14 -0.14)">
     <use xlink:href="#DejaVuSans-86"/>
     <use x="66.158203" xlink:href="#DejaVuSans-105"/>
     <use x="93.941406" xlink:href="#DejaVuSans-115"/>
     <use x="146.041016" xlink:href="#DejaVuSans-105"/>
     <use x="173.824219" xlink:href="#DejaVuSans-111"/>
     <use x="235.005859" xlink:href="#DejaVuSans-110"/>
    </g>
   </g>
   <g id="text_13">
    <!-- Machine -->
    <defs>
     <path d="M 9.8125 72.90625 
L 24.515625 72.90625 
L 43.109375 23.296875 
L 61.8125 72.90625 
L 76.515625 72.90625 
L 76.515625 0 
L 66.890625 0 
L 66.890625 64.015625 
L 48.09375 14.015625 
L 38.1875 14.015625 
L 19.390625 64.015625 
L 19.390625 0 
L 9.8125 0 
z
" id="DejaVuSans-77"/>
     <path d="M 54.890625 33.015625 
L 54.890625 0 
L 45.90625 0 
L 45.90625 32.71875 
Q 45.90625 40.484375 42.875 44.328125 
Q 39.84375 48.1875 33.796875 48.1875 
Q 26.515625 48.1875 22.3125 43.546875 
Q 18.109375 38.921875 18.109375 30.90625 
L 18.109375 0 
L 9.078125 0 
L 9.078125 75.984375 
L 18.109375 75.984375 
L 18.109375 46.1875 
Q 21.34375 51.125 25.703125 53.5625 
Q 30.078125 56 35.796875 56 
Q 45.21875 56 50.046875 50.171875 
Q 54.890625 44.34375 54.890625 33.015625 
z
" id="DejaVuSans-104"/>
    </defs>
    <g style="fill:var(--text-color);" transform="translate(735.04 28.610911)scale(0.14 -0.14)">
     <use xlink:href="#DejaVuSans-77"/>
     <use x="86.279297" xlink:href="#DejaVuSans-97"/>
     <use x="147.558594" xlink:href="#DejaVuSans-99"/>
     <use x="202.539062" xlink:href="#DejaVuSans-104"/>
     <use x="265.917969" xlink:href="#DejaVuSans-105"/>
     <use x="293.701172" xlink:href="#DejaVuSans-110"/>
     <use x="357.080078" xlink:href="#DejaVuSans-101"/>
    </g>
    <!-- Learning -->
    <defs>
     <path d="M 9.8125 72.90625 
L 19.671875 72.90625 
L 19.671875 8.296875 
L 55.171875 8.296875 
L 55.171875 0 
L 9.8125 0 
z
" id="DejaVuSans-76"/>
    </defs>
    <g style="fill:var(--text-color);" transform="translate(735.04 44.287849)scale(0.14 -0.14)">
     <use xlink:href="#DejaVuSans-76"/>
     <use x="53.962891" xlink:href="#DejaVuSans-101"/>
     <use x="115.486328" xlink:href="#DejaVuSans-97"/>
     <use x="176.765625" xlink:href="#DejaVuSans-114"/>
     <use x="216.128906" xlink:href="#DejaVuSans-110"/>
     <use x="279.507812" xlink:href="#DejaVuSans-105"/>
     <use x="307.291016" xlink:href="#DejaVuSans-110"/>
     <use x="370.669922" xlink:href="#DejaVuSans-103"/>
    </g>
   </g>
   <g id="text_14">
    <!-- ARM -->
    <defs>
     <path d="M 44.390625 34.1875 
Q 47.5625 33.109375 50.5625 29.59375 
Q 53.5625 26.078125 56.59375 19.921875 
L 66.609375 0 
L 56 0 
L 46.6875 18.703125 
Q 43.0625 26.03125 39.671875 28.421875 
Q 36.28125 30.8125 30.421875 30.8125 
L 19.671875 30.8125 
L 19.671875 0 
L 9.8125 0 
L 9.8125 72.90625 
L 32.078125 72.90625 
Q 44.578125 72.90625 50.734375 67.671875 
Q 56.890625 62.453125 56.890625 51.90625 
Q 56.890625 45.015625 53.6875 40.46875 
Q 50.484375 35.9375 44.390625 34.1875 
z
M 19.671875 64.796875 
L 19.671875 38.921875 
L 32.078125 38.921875 
Q 39.203125 38.921875 42.84375 42.21875 
Q 46.484375 45.515625 46.484375 51.90625 
Q 46.484375 58.296875 42.84375 61.546875 
Q 39.203125 64.796875 32.078125 64.796875 
z
" id="DejaVuSans-82"/>
    </defs>
    <g style="fill:var(--text-color);" transform="translate(397.76 74.36753)scale(0.14 -0.14)">
     <use xlink:href="#DejaVuSans-65"/>
     <use x="68.408203" xlink:href="#DejaVuSans-82"/>
     <use x="137.890625" xlink:href="#DejaVuSans-77"/>
    </g>
   </g>
   <g id="text_15">
    <!-- Flask -->
    <g style="fill:var(--text-color);" transform="translate(516.8 134.526892)scale(0.14 -0.14)">
     <use xlink:href="#DejaVuSans-70"/>
     <use x="57.519531" xlink:href="#DejaVuSans-108"/>
     <use x="85.302734" xlink:href="#DejaVuSans-97"/>
     <use x="146.582031" xlink:href="#DejaVuSans-115"/>
     <use x="198.681641" xlink:href="#DejaVuSans-107"/>
    </g>
   </g>
   <g id="text_16">
    <!-- Ocaml -->
    <defs>
     <path d="M 39.40625 66.21875 
Q 28.65625 66.21875 22.328125 58.203125 
Q 16.015625 50.203125 16.015625 36.375 
Q 16.015625 22.609375 22.328125 14.59375 
Q 28.65625 6.59375 39.40625 6.59375 
Q 50.140625 6.59375 56.421875 14.59375 
Q 62.703125 22.609375 62.703125 36.375 
Q 62.703125 50.203125 56.421875 58.203125 
Q 50.140625 66.21875 39.40625 66.21875 
z
M 39.40625 74.21875 
Q 54.734375 74.21875 63.90625 63.9375 
Q 73.09375 53.65625 73.09375 36.375 
Q 73.09375 19.140625 63.90625 8.859375 
Q 54.734375 -1.421875 39.40625 -1.421875 
Q 24.03125 -1.421875 14.8125 8.828125 
Q 5.609375 19.09375 5.609375 36.375 
Q 5.609375 53.65625 14.8125 63.9375 
Q 24.03125 74.21875 39.40625 74.21875 
z
" id="DejaVuSans-79"/>
    </defs>
    <g style="fill:var(--text-color);" transform="translate(358.08 209.726096)scale(0.14 -0.14)">
     <use xlink:href="#DejaVuSans-79"/>
     <use x="78.710938" xlink:href="#DejaVuSans-99"/>
     <use x="133.691406" xlink:href="#DejaVuSans-97"/>
     <use x="194.970703" xlink:href="#DejaVuSans-109"/>
     <use x="292.382812" xlink:href="#DejaVuSans-108"/>
    </g>
   </g>
   <g id="text_17">
    <!-- Git -->
    <defs>
     <path d="M 59.515625 10.40625 
L 59.515625 29.984375 
L 43.40625 29.984375 
L 43.40625 38.09375 
L 69.28125 38.09375 
L 69.28125 6.78125 
Q 63.578125 2.734375 56.6875 0.65625 
Q 49.8125 -1.421875 42 -1.421875 
Q 24.90625 -1.421875 15.25 8.5625 
Q 5.609375 18.5625 5.609375 36.375 
Q 5.609375 54.25 15.25 64.234375 
Q 24.90625 74.21875 42 74.21875 
Q 49.125 74.21875 55.546875 72.453125 
Q 61.96875 70.703125 67.390625 67.28125 
L 67.390625 56.78125 
Q 61.921875 61.421875 55.765625 63.765625 
Q 49.609375 66.109375 42.828125 66.109375 
Q 29.4375 66.109375 22.71875 58.640625 
Q 16.015625 51.171875 16.015625 36.375 
Q 16.015625 21.625 22.71875 14.15625 
Q 29.4375 6.6875 42.828125 6.6875 
Q 48.046875 6.6875 52.140625 7.59375 
Q 56.25 8.5 59.515625 10.40625 
z
" id="DejaVuSans-71"/>
    </defs>
    <g style="fill:var(--text-color);" transform="translate(457.28 44.287849)scale(0.14 -0.14)">
     <use xlink:href="#DejaVuSans-71"/>
     <use x="77.490234" xlink:href="#DejaVuSans-105"/>
     <use x="105.273438" xlink:href="#DejaVuSans-116"/>
    </g>
   </g>
   <g id="text_18">
    <!-- PyTorch -->
    <g style="fill:var(--text-color);" transform="translate(635.84 44.287849)scale(0.14 -0.14)">
     <use xlink:href="#DejaVuSans-80"/>
     <use x="60.302734" xlink:href="#DejaVuSans-121"/>
     <use x="119.482422" xlink:href="#DejaVuSans-84"/>
     <use x="163.566406" xlink:href="#DejaVuSans-111"/>
     <use x="224.748047" xlink:href="#DejaVuSans-114"/>
     <use x="263.611328" xlink:href="#DejaVuSans-99"/>
     <use x="318.591797" xlink:href="#DejaVuSans-104"/>
    </g>
   </g>
   <g id="text_19">
    <!-- Tensorflow -->
    <defs>
     <path d="M 37.109375 75.984375 
L 37.109375 68.5 
L 28.515625 68.5 
Q 23.6875 68.5 21.796875 66.546875 
Q 19.921875 64.59375 19.921875 59.515625 
L 19.921875 54.6875 
L 34.71875 54.6875 
L 34.71875 47.703125 
L 19.921875 47.703125 
L 19.921875 0 
L 10.890625 0 
L 10.890625 47.703125 
L 2.296875 47.703125 
L 2.296875 54.6875 
L 10.890625 54.6875 
L 10.890625 58.5 
Q 10.890625 67.625 15.140625 71.796875 
Q 19.390625 75.984375 28.609375 75.984375 
z
" id="DejaVuSans-102"/>
    </defs>
    <g style="fill:var(--text-color);" transform="translate(635.84 119.487052)scale(0.14 -0.14)">
     <use xlink:href="#DejaVuSans-84"/>
     <use x="44.083984" xlink:href="#DejaVuSans-101"/>
     <use x="105.607422" xlink:href="#DejaVuSans-110"/>
     <use x="168.986328" xlink:href="#DejaVuSans-115"/>
     <use x="221.085938" xlink:href="#DejaVuSans-111"/>
     <use x="282.267578" xlink:href="#DejaVuSans-114"/>
     <use x="323.380859" xlink:href="#DejaVuSans-102"/>
     <use x="358.585938" xlink:href="#DejaVuSans-108"/>
     <use x="386.369141" xlink:href="#DejaVuSans-111"/>
     <use x="447.550781" xlink:href="#DejaVuSans-119"/>
    </g>
   </g>
   <g id="text_20">
    <!-- Kernel Programming -->
    <g style="fill:var(--text-color);" transform="translate(477.12 164.606574)scale(0.14 -0.14)">
     <use xlink:href="#DejaVuSans-75"/>
     <use x="60.576172" xlink:href="#DejaVuSans-101"/>
     <use x="122.099609" xlink:href="#DejaVuSans-114"/>
     <use x="161.462891" xlink:href="#DejaVuSans-110"/>
     <use x="224.841797" xlink:href="#DejaVuSans-101"/>
     <use x="286.365234" xlink:href="#DejaVuSans-108"/>
     <use x="314.148438" xlink:href="#DejaVuSans-32"/>
     <use x="345.935547" xlink:href="#DejaVuSans-80"/>
     <use x="404.488281" xlink:href="#DejaVuSans-114"/>
     <use x="443.351562" xlink:href="#DejaVuSans-111"/>
     <use x="504.533203" xlink:href="#DejaVuSans-103"/>
     <use x="568.009766" xlink:href="#DejaVuSans-114"/>
     <use x="609.123047" xlink:href="#DejaVuSans-97"/>
     <use x="670.402344" xlink:href="#DejaVuSans-109"/>
     <use x="767.814453" xlink:href="#DejaVuSans-109"/>
     <use x="865.226562" xlink:href="#DejaVuSans-105"/>
     <use x="893.009766" xlink:href="#DejaVuSans-110"/>
     <use x="956.388672" xlink:href="#DejaVuSans-103"/>
    </g>
   </g>
   <g id="text_21">
    <!-- Android -->
    <g style="fill:var(--text-color);" transform="translate(477.12 209.726096)scale(0.14 -0.14)">
     <use xlink:href="#DejaVuSans-65"/>
     <use x="68.408203" xlink:href="#DejaVuSans-110"/>
     <use x="131.787109" xlink:href="#DejaVuSans-100"/>
     <use x="195.263672" xlink:href="#DejaVuSans-114"/>
     <use x="234.126953" xlink:href="#DejaVuSans-111"/>
     <use x="295.308594" xlink:href="#DejaVuSans-105"/>
     <use x="323.091797" xlink:href="#DejaVuSans-100"/>
    </g>
   </g>
   <g id="text_22">
    <!-- Shell -->
    <g style="fill:var(--text-color);" transform="translate(516.8 74.36753)scale(0.14 -0.14)">
     <use xlink:href="#DejaVuSans-83"/>
     <use x="63.476562" xlink:href="#DejaVuSans-104"/>
     <use x="126.855469" xlink:href="#DejaVuSans-101"/>
     <use x="188.378906" xlink:href="#DejaVuSans-108"/>
     <use x="216.162109" xlink:href="#DejaVuSans-108"/>
    </g>
   </g>
   <g id="text_23">
    <!-- Python -->
    <g style="fill:var(--text-color);" transform="translate(754.88 89.407371)scale(0.14 -0.14)">
     <use xlink:href="#DejaVuSans-80"/>
     <use x="60.302734" xlink:href="#DejaVuSans-121"/>
     <use x="119.482422" xlink:href="#DejaVuSans-116"/>
     <use x="158.691406" xlink:href="#DejaVuSans-104"/>
     <use x="222.070312" xlink:href="#DejaVuSans-111"/>
     <use x="283.251953" xlink:href="#DejaVuSans-110"/>
    </g>
   </g>
   <g id="text_24">
    <!-- C -->
    <g style="fill:var(--text-color);" transform="translate(596.16 44.287849)scale(0.14 -0.14)">
     <use xlink:href="#DejaVuSans-67"/>
    </g>
   </g>
   <g id="text_25">
    <!-- Web design -->
    <g style="fill:var(--text-color);" transform="translate(318.4 134.526892)scale(0.14 -0.14)">
     <use xlink:href="#DejaVuSans-87"/>
     <use x="93.001953" xlink:href="#DejaVuSans-101"/>
     <use x="154.525391" xlink:href="#DejaVuSans-98"/>
     <use x="218.001953" xlink:href="#DejaVuSans-32"/>
     <use x="249.789062" xlink:href="#DejaVuSans-100"/>
     <use x="313.265625" xlink:href="#DejaVuSans-101"/>
     <use x="374.789062" xlink:href="#DejaVuSans-115"/>
     <use x="426.888672" xlink:href="#DejaVuSans-105"/>
     <use x="454.671875" xlink:href="#DejaVuSans-103"/>
     <use x="518.148438" xlink:href="#DejaVuSans-110"/>
    </g>
   </g>
  </g>
 </g>
 <defs>
  <clipPath id="p6ef8f77b30">
   <rect height="188.75" width="744" x="120" y="30"/>
  </clipPath>
 </defs>
</svg>
