<?xml version="1.0" encoding="UTF-8"?>
<svg width="512pt" height="512pt" version="1.1" viewBox="0 0 512 512" xmlns="http://www.w3.org/2000/svg">
 <g id='hp'>
  <path d="m363.41 301.99c-41.562 0-76.523 28.477-86.621 66.906-8.6953-6.5781-17.586-6.5078-21.945-5.8516-4.4805 0.6875-8.5391 2.6484-12.191 5.0977-10.352-38.062-45.129-66.16-86.414-66.16-49.449 0-89.656 40.211-89.656 89.645 0.003906 49.438 40.203 89.656 89.652 89.656 49.434 0 89.645-40.211 89.645-89.645 0-1.4844-0.16016-2.9297-0.21875-4.3945l0.0625 0.011718c0.78516-3.7539 5.3438-8.3828 11.367-9.2812 6.3164-0.96875 14.598 1.5625 16.477 9.0938-0.0625 1.1406 0.18359 3.4453 0.18359 4.5859 0 49.414 40.223 89.629 89.66 89.629 49.422 0 89.637-40.211 89.637-89.637-0.003907-49.445-40.211-89.656-89.637-89.656zm-207.18 164.21c-41.113 0-74.566-33.445-74.566-74.559 0-41.129 33.453-74.551 74.566-74.551 41.109 0 74.559 33.418 74.559 74.551 0.003907 41.109-33.449 74.559-74.559 74.559zm207.18 0c-41.129 0-74.574-33.43-74.574-74.551 0-41.129 33.445-74.559 74.574-74.559 41.117 0 74.547 33.43 74.547 74.559-0.003906 41.117-33.426 74.551-74.547 74.551z"/>
  <path d="m207.41 182.36c71.164-20.098 110.71 115.44 110.71 115.44s83.164-51.902 75.301-111.39c53.457 17 74.5 179.64 74.5 179.64s48.891-66.09 33.762-175.66c-11.699-63-79.594-176.72-219.06-180.37-58.215 1.0078-97.848 27.75-97.848 27.75s-123.24-27.75-168.68 62.07c52.578-17.52 57.691-2.9219 57.691-2.9219s-140.11 38.527-20.051 281.68c0 0-10.973-97.406 19.652-148.6 3.3477 38.223 44.258 54.992 44.258 54.992-0.003906 0 8.2617-83.391 89.766-102.63z"/>
  <path d="m225.4 309.57-40.957-44.594 32.336-14.246-30.887-34.324 7.9766-7.1875 40.805 45.359-32.188 14.176 30.82 33.562z"/>
 </g>
</svg>
