<?xml version="1.0" encoding="UTF-8"?>
<svg width="512pt" height="512pt" version="1.1" viewBox="0 0 512 512" xmlns="http://www.w3.org/2000/svg">
 <g id="tennis">
  <path d="m399.11 62.141c-0.73438-0.011719-1.4727-0.003906-2.2109 0-14.184 0.17969-28.848 3.6797-43.277 10.613-22.52 10.816-46.426 31.762-61.203 53.621-5.957 8.8125-9.2383 15.238-12.68 24.824-5.5 15.32-6.1602 21.062-6.3242 54.914-0.14062 29.152-0.31641 31.953-2.457 39.473-5.3281 18.691-11.742 27.766-39.406 55.734l-22.426 22.672 7.9453 7.9414 7.9414 7.9414 22.121-22.176c12.168-12.195 25.133-24.273 28.809-26.84 9.2695-6.4688 14.922-9.2031 25.121-12.16 12.195-3.5352 25.988-4.6953 43.797-3.6914 42.508 2.3984 68.523-7.1172 98.121-35.887 21.59-20.984 34.695-41.844 41.059-65.348 2.9844-11.016 3.168-33.617 0.36328-43.793-4.5195-16.379-12.238-29.758-23.961-41.52-17.066-17.125-38.52-26.047-61.336-26.316zm-0.21875 10.762c13.098 0.003906 15.148 0.26953 22.633 2.8789 4.5273 1.5781 11.473 4.7734 15.434 7.0977 8.332 4.8867 21.961 18.109 27.668 26.844 22.688 34.715 12.605 79.984-26.641 119.61-17.777 17.949-34.328 27.633-54.227 31.734-11.387 2.3438-33.836 2.0938-44.387-0.49609-29.738-7.3086-49.598-30.961-53.211-63.375-2.8125-25.215 4.3633-51.453 19.516-71.398 12.516-16.469 36.219-35.895 53.926-44.195 14.77-6.9219 22.812-8.6992 39.289-8.6914zm4.2734 9.2305-1.1875 13.375-9.7578 0.30078c-11.172 0.34375-12.242-0.29688-12.531-7.4414-0.14844-3.707-0.23438-3.5391-0.77344 1.4844l-0.60547 5.6602-9.7578 0.30078c-8.3984 0.25781-9.9453 0.039062-11.121-1.543-1.293-1.75-1.4141-1.75-2.3828-0.039062-0.5625 0.99219-2.0391 1.8477-3.2852 1.9023-2.0898 0.09375-2.0664 0.15625 0.30859 0.81641 2.543 0.70703 2.5703 0.84375 2.5703 11.988v11.27h-20.578l-0.59766-6.1719c-0.52344-5.3828-0.62109-5.6055-0.77344-1.7344-0.27734 7.0703-1.4609 8.3984-7.668 8.5664l-5.3672 0.14453 5.3398 0.64844c2.9375 0.35547 5.6328 0.94531 5.9961 1.3086 1.2695 1.2695 1.6875 18.16 0.50781 20.371-1.0625 1.9883-1.9023 2.1289-11.125 1.8555l-9.9766-0.29297-0.61719-4.6289c-0.39844-2.9961-0.67188-3.6094-0.77344-1.7344-0.21094 3.9297-1.9141 6.8594-4.0469 6.957-1.4102 0.066406-1.457 0.19141-0.22266 0.63281 3.1406 1.1211 4.1172 3.8203 4.1172 11.383 0 10.434-0.74219 11.523-8.0078 11.758l-5.8789 0.19141 5.6602 0.36328c7.3008 0.47266 8.2305 1.7539 8.2305 11.348 0 10.723-0.61328 11.523-9.0391 11.766l-6.9102 0.19922 6.6875 0.35547c4.7109 0.25 7.0664 0.85547 7.9727 2.0547 1.4805 1.9609 1.75 16.473 0.34766 18.688-0.5 0.78516-2.6914 1.7734-4.8711 2.1953l-3.9648 0.76562 3.8242 0.11719c4.7461 0.14844 5.8867 2.0195 6.1367 10.082 0.18359 5.8984 0.19531 5.8711 0.77344-1.7344l0.58594-7.7148 9.9766-0.29297c9.3203-0.27344 10.055-0.14844 11.164 1.9258 1.3164 2.4609 1.0039 17.719-0.39062 19.121-0.46875 0.46875-3.9375 1.1289-7.7148 1.4609l-6.8594 0.60938 6.9102 0.16406c7.3828 0.17188 8.8594 1.2227 9.1836 6.5234 0.082031 1.3125 0.42578 0.53125 0.77344-1.7344l0.625-4.1172h20.578l0.44922 6.6875c0.28906 4.2969 0.56641 5.3984 0.78125 3.0859 0.18359-1.9805 0.58203-5.1211 0.89062-6.9805l0.55859-3.3789 20.984 0.58594 0.59766 6.1719c0.57422 5.9297 0.60547 5.9844 0.77344 1.3711 0.29297-8.1562 0.15625-8.0586 11.633-8.0586 9.6289 0 10.262 0.12891 11.062 2.2969l0.85156 2.3008 0.72656-2.3008c0.40234-1.2656 1.5078-2.3203 2.4609-2.3516 1.3906-0.039062 1.2773-0.37109-0.58203-1.668-2.0977-1.4648-2.3125-2.4414-2.3008-10.492 0.007813-4.8828 0.39453-9.4727 0.85547-10.203 0.61719-0.96875 3.5742-1.2461 11.043-1.0273l10.203 0.29688 0.59766 6.1719c0.57422 5.9297 0.60547 5.9844 0.77344 1.3711 0.27344-7.5703 0.67578-8.0352 7.2266-8.2422l5.8047-0.18359-5.1172-0.39453c-2.8164-0.21875-5.707-0.88672-6.4297-1.4844-1.3672-1.1367-1.9062-16.613-0.6875-19.785 0.51172-1.332 2.4609-1.625 10.676-1.625 10.66 0 11.773 0.45312 12.637 5.1445 0.39453 2.1523 0.49609 2.0195 0.61328-0.80469 0.085937-2.0859 0.78516-3.625 1.8281-4.0234 1.5547-0.59766 1.5547-0.74609-0.039063-1.9102-1.4531-1.0625-1.6797-2.875-1.4297-11.41l0.29688-10.148 12.344-1.1406-12.344-0.92187v-21.609l14.406-0.92969-14.406-1.125-0.29297-10.719c-0.32031-11.66-0.058594-12.273 5.4375-12.559 2.6328-0.13672 2.4844-0.25391-1.0273-0.78906l-4.1172-0.625-1.1797-14.406-0.18359 6.2227c-0.10156 3.4219-0.73828 6.7812-1.418 7.4609-0.78906 0.78906-4.8203 1.2344-11.207 1.2344-8.1445 0-10.086-0.30078-10.598-1.6289-1.1641-3.0352-0.67969-19.508 0.60938-20.801 0.67969-0.67969 4.0352-1.3203 7.4609-1.4297l6.2227-0.19531-6.1367-0.37891c-7-0.42969-8.7227-1.4531-8.9141-5.2773-0.10938-2.2031-0.25391-2.0352-0.77344 0.89844l-0.63672 3.6016-9.6211 0.29688c-6.2109 0.19141-10.133-0.12891-11.059-0.89844-0.875-0.72656-1.5078-3.4688-1.6172-6.9844l-0.17969-5.7891zm-39.68 15.047c1.3398-0.011719 2.9961 0.027343 5.0703 0.089843l9.7578 0.30078v22.633l-9.9766 0.29297c-9.0391 0.26562-10.078 0.10156-11.059-1.7344-1.543-2.8867-1.3828-17.824 0.21875-20.012 0.82812-1.1367 1.9766-1.543 5.9922-1.5703zm23.664 0c1.3398-0.011719 2.9961 0.027343 5.0703 0.089843l9.7578 0.30078v22.633l-9.793 0.28906c-6.7383 0.19922-10.188-0.10547-11.059-0.97656-1.7383-1.7383-1.7109-18.379 0.035156-20.766 0.82812-1.1367 1.9766-1.543 5.9922-1.5703zm24.652 0.039062c1.2539-0.015625 2.6641 0 4.2148 0.050781l9.6211 0.29688v22.633l-10.422 0.28906c-8.8203 0.24609-10.52 0.035157-11.059-1.3711-0.35156-0.91406-0.63672-5.7344-0.63672-10.711 0-6.5 0.40625-9.3867 1.4375-10.246 0.69531-0.57812 3.0781-0.90234 6.8438-0.94531zm3.1992 24.477c4.6484 0.046876 9.2617 0.55469 10.035 1.4883 0.77734 0.93359 1.0898 4.9844 0.89844 11.574l-0.29688 10.137-9.793 0.28906c-6.7383 0.19922-10.188-0.10547-11.059-0.97656-1.707-1.707-1.7344-19.527-0.035156-21.227 0.91406-0.91406 5.5977-1.332 10.25-1.2852zm-23.922 0.050782c6.5352 0 9.4336 0.40625 10.289 1.4375 0.77734 0.93359 1.0898 4.9844 0.89844 11.574l-0.29688 10.137-9.9766 0.29297c-9.0391 0.26562-10.078 0.10156-11.059-1.7344-1.3945-2.6094-1.4141-17.121-0.019532-19.719 0.92969-1.7383 2.2227-1.9883 10.164-1.9883zm48.102 0c11.434 0 11.664 0.23438 11.664 11.832s-0.23047 11.832-11.664 11.832c-6.043 0-9.9844-0.45312-10.766-1.2344s-1.2344-4.6875-1.2344-10.598 0.45703-9.8164 1.2344-10.598c0.78125-0.78125 4.7227-1.2344 10.766-1.2344zm-71.898 0.015625c4.9297 0.011719 9.5625 0.39453 10.289 0.85547 0.97266 0.61719 1.2461 3.6758 1.0273 11.559l-0.29297 10.719-9.9766 0.29297c-9.0391 0.26562-10.078 0.10156-11.059-1.7344-1.3945-2.6094-1.4141-17.121-0.019531-19.719 0.92969-1.7344 2.2109-1.9883 10.031-1.9727zm-22.41 0.019531c4.1914 0.054688 8.2695 0.34766 9.0391 0.83594 0.97266 0.61719 1.2461 3.6758 1.0273 11.559l-0.29297 10.719-9.8242 0.28906c-5.4023 0.16016-10.148-0.03125-10.547-0.42578-0.39453-0.39453-0.71875-5.4531-0.71875-11.242 0-8.6445 0.28906-10.633 1.625-11.148 1.2031-0.46094 5.5-0.64453 9.6914-0.58984zm94.309 24.656c11.371 0 11.664 0.28516 11.664 11.316s-0.29297 11.316-11.664 11.316c-6.043 0-9.9844-0.45312-10.766-1.2344-0.76953-0.76953-1.2344-4.5742-1.2344-10.082 0-5.5117 0.46484-9.3125 1.2344-10.082 0.78125-0.78125 4.7227-1.2344 10.766-1.2344zm-75.695 0.12891c1.3398-0.011718 2.9961 0.027344 5.0703 0.089844l9.7578 0.30078v21.609l-9.9766 0.29297c-9.0391 0.26562-10.078 0.10156-11.059-1.7344-1.5352-2.8711-1.375-16.805 0.21875-18.984 0.82812-1.1367 1.9766-1.543 5.9922-1.5703zm23.664 0c1.3398-0.011718 2.9961 0.027344 5.0703 0.089844l9.7578 0.30078v21.609l-9.9766 0.29297c-9.0391 0.26562-10.078 0.10156-11.059-1.7344-1.5352-2.8711-1.375-16.805 0.21875-18.984 0.82812-1.1367 1.9766-1.543 5.9922-1.5703zm-62.805 0.003906c7.8906-0.066406 7.9375 1.2266 7.9375 11.188 0 11.23-0.085938 11.316-11.586 11.316-7.2188 0-9.9766-0.36328-10.363-1.3633-0.28906-0.75-0.39062-5.7266-0.22656-11.059l0.30078-9.6953 10.051-0.29688c1.4688-0.039062 2.7578-0.078125 3.8867-0.089844zm87.457 0.035157c1.2539-0.015625 2.6641 0 4.2148 0.050781l9.6211 0.29688 0.29688 10.203c0.21875 7.4688-0.058594 10.43-1.0273 11.043-2.1211 1.3477-18.742 1.0469-20.152-0.36328-1.832-1.832-1.6602-18.738 0.20312-20.285 0.69531-0.57812 3.0781-0.90234 6.8438-0.94531zm-77.73 0.34766h20.578v21.609l-10.051 0.29297c-7.7383 0.22656-10.172-0.027344-10.586-1.1055-0.29688-0.76953-0.40234-5.7656-0.23828-11.098l0.30078-9.6953zm-3.5781 23.074 1.1055 2.8672c1.5938 4.1328 0.76953 17.637-1.1484 18.848-1.8711 1.1836-17.48 1.2812-19.309 0.12109-0.96875-0.61719-1.2461-3.5742-1.0273-11.043l0.29688-10.203 10.043-0.29297 10.043-0.29688zm108.69 0.074218c11.371 0 11.664 0.28516 11.664 11.316s-0.29297 11.316-11.664 11.316c-6.043 0-9.9844-0.45312-10.766-1.2344-0.76953-0.76953-1.2344-4.5742-1.2344-10.082 0-5.5117 0.46484-9.3125 1.2344-10.082 0.78125-0.78125 4.7227-1.2344 10.766-1.2344zm-75.695 0.12891c1.3398-0.011719 2.9961 0.027343 5.0703 0.089843l9.7578 0.30078 0.29688 10.203c0.21875 7.4688-0.058594 10.43-1.0273 11.043-0.73047 0.46094-5.3867 0.84766-10.352 0.85547-8.75 0.015625-9.0586-0.066406-10.031-2.625-1.4492-3.8125-1.2461-16.184 0.30078-18.297 0.82812-1.1367 1.9766-1.543 5.9922-1.5703zm23.664 0c1.3398-0.011719 2.9961 0.027343 5.0703 0.089843l9.7578 0.30078 0.29688 10.203c0.21875 7.4688-0.058594 10.43-1.0273 11.043-0.73047 0.46094-5.3594 0.84766-10.293 0.85547-7.8203 0.015625-9.1016-0.23828-10.031-1.9727-1.5195-2.8398-1.3438-16.781 0.23828-18.945 0.82812-1.1367 1.9766-1.543 5.9922-1.5703zm24.652 0.039062c1.2539-0.015625 2.6641 0 4.2148 0.050781l9.6211 0.29688 0.29688 9.6211c0.19141 6.2109-0.12891 10.129-0.89844 11.059-1.5469 1.8672-18.453 2.0391-20.285 0.20703-1.832-1.832-1.6602-18.738 0.20312-20.285 0.69531-0.57812 3.0781-0.90234 6.8438-0.94531zm-77.73 0.34766h20.578l0.29687 10.203c0.21875 7.4688-0.058593 10.43-1.0273 11.043-0.73047 0.46094-5.0273 0.83984-9.5547 0.83984-4.5273 0-8.8281-0.37891-9.5586-0.83984-0.96875-0.61719-1.2461-3.5742-1.0273-11.043l0.29688-10.203zm-8.168 23.262c4.1914 0.015625 4.8086 0.47656 5.6406 2.0312 1.7344 3.2383 0.89844 18.234-1.0859 19.488-1.8789 1.1875-17.488 1.293-19.32 0.12891-0.96875-0.61719-1.2461-3.5742-1.0273-11.043l0.29688-10.203 9.9766-0.29297c2.3281-0.070312 4.125-0.11328 5.5195-0.10547zm36.914 0c1.3984-0.003906 3.1914 0.035156 5.5195 0.10547l9.9766 0.29297 0.29688 10.203c0.21875 7.4688-0.058594 10.43-1.0273 11.043-1.8359 1.1641-17.438 1.0586-19.32-0.12891-1.9844-1.2539-2.8203-16.25-1.0859-19.488 0.83203-1.5547 1.4531-2.0156 5.6445-2.0312zm25.32 0.054688c1.2539-0.015625 2.6641 0 4.2148 0.050781l9.6211 0.29688 0.29688 9.6211c0.19141 6.2109-0.12891 10.133-0.89844 11.059-1.7812 2.1484-17.719 2.0039-19.902-0.17578-2.1836-2.1836-2.3242-18.121-0.17969-19.902 0.69531-0.57812 3.0781-0.90234 6.8438-0.94531zm23.664 0c1.2539-0.015625 2.6641 0 4.2148 0.050781l9.6211 0.29688 0.29688 9.6211c0.19141 6.2109-0.12891 10.133-0.89844 11.059-1.7812 2.1484-17.719 2.0039-19.902-0.17578-2.1836-2.1836-2.3242-18.121-0.17969-19.902 0.69531-0.57812 3.0781-0.90234 6.8438-0.94531zm-77.73 0.34766h20.578l0.29687 10.203c0.21875 7.4688-0.058593 10.43-1.0273 11.043-0.73047 0.46094-5.0273 0.83984-9.5547 0.83984-4.5273 0-8.8281-0.37891-9.5586-0.83984-0.96875-0.61719-1.2461-3.5742-1.0273-11.043l0.29688-10.203zm30.594 23.285c1.1367 0.003906 2.4258 0.035156 3.8906 0.082032l9.7578 0.30078 0.29688 10.203c0.21875 7.4688-0.058594 10.43-1.0273 11.043-0.73047 0.46094-5.125 0.84766-9.7734 0.85547-7.3789 0.015625-8.7148-0.26953-10.547-2.2344-1.6484-1.7695-2.0977-1.9023-2.0977-0.625 0 0.89453-0.73047 1.9062-1.625 2.25-2.4062 0.92188-17.195 0.72656-18.734-0.24609-0.96875-0.61719-1.2461-3.5742-1.0273-11.043l0.29688-10.203h20.578l1.1641 16.461 0.1875-6.75c0.24219-8.6797 0.70703-10.109 8.6641-10.094zm23.473 0.03125c1.2539-0.015625 2.6641 0 4.2148 0.050782l9.6211 0.29687 0.29688 10.203c0.21875 7.4688-0.058593 10.43-1.0273 11.043-0.73047 0.46094-5.1094 0.84766-9.7383 0.85547-6.293 0.011719-8.8203-0.39062-10.031-1.6016-2.1836-2.1836-2.3242-18.121-0.17969-19.902 0.69531-0.57812 3.0781-0.90234 6.8438-0.94531zm-189.21 113.71-27.371 26.039h38.938l5.7695-7.1602-17.34-18.879zm-40.738 38.387-13.941 14.633 39.559 0.79688 13.941-14.633-39.559-0.80078zm-27.887 27.777-14.293 14.402h42.184l14.293-14.402zm-25.996 26.75c-1.6758 2.3945-5.1992 5.1133-5.3281 8.1562 0 4.4883 11.402 16.008 17.301 17.484 0.17969 0.050781 1.3359-0.45703 2.5703-1.1133 2.8867-1.5352 25.395-22.5 25.395-23.652l-39.941-0.87109z"/>
  <path d="m112.89 62.141c-22.812 0.26953-44.27 9.1914-61.332 26.316-11.719 11.762-19.441 25.141-23.961 41.52-2.8086 10.176-2.6211 32.777 0.36328 43.793 6.3633 23.504 19.473 44.363 41.059 65.348 29.598 28.77 55.609 38.285 98.117 35.887 17.809-1.0039 31.605 0.16016 43.797 3.6914 3.6602 1.0625 6.7266 2.0977 9.5938 3.2852l24.625-24.68c-1.5859-3.6328-2.8867-7.418-4.1133-11.723-2.1406-7.5195-2.3164-10.32-2.457-39.473-0.16406-33.852-0.82422-39.594-6.3242-54.914-3.4414-9.5859-6.7227-16.008-12.684-24.824-14.777-21.859-38.684-42.805-61.203-53.621-14.43-6.9297-29.094-10.434-43.277-10.613-0.73828-0.011718-1.4766-0.011718-2.2109 0zm0.21875 10.762c16.477-0.011719 24.52 1.7695 39.289 8.6914 17.711 8.3008 41.414 27.727 53.93 44.195 15.152 19.945 22.328 46.184 19.516 71.398-3.6133 32.418-23.477 56.07-53.215 63.375-10.551 2.5938-33 2.8438-44.383 0.49609-19.898-4.1016-36.453-13.785-54.23-31.734-39.246-39.621-49.324-84.891-26.637-119.61 5.707-8.7344 19.336-21.957 27.668-26.844 3.9609-2.3242 10.906-5.5156 15.434-7.0977 7.4844-2.6094 9.5352-2.8711 22.633-2.8789zm-4.2734 9.2305v0.015626zm0 0.015626-0.17969 5.7773c-0.10938 3.5156-0.74219 6.2578-1.6172 6.9844-0.92969 0.76953-4.8516 1.0898-11.059 0.89844l-9.6211-0.29688-0.63672-3.6016c-0.51953-2.9336-0.66016-3.1016-0.77344-0.89844-0.19141 3.8242-1.9141 4.8438-8.9141 5.2773l-6.1367 0.37891 6.2227 0.19531c3.4219 0.10547 6.7812 0.75 7.4609 1.4297 1.2891 1.2891 1.7734 17.766 0.60938 20.801-0.51172 1.3281-2.4531 1.6289-10.598 1.6289-6.3828 0-10.414-0.44531-11.207-1.2344-0.67969-0.67969-1.3164-4.0352-1.418-7.4609l-0.18359-6.2227-1.1797 14.406-4.1172 0.625c-3.5117 0.53516-3.6641 0.64844-1.0273 0.78906 5.4961 0.28906 5.7578 0.89844 5.4375 12.559l-0.29297 10.719-14.406 1.125 14.406 0.92969v21.609l-12.344 0.92188 12.344 1.1406 0.29688 10.148c0.25 8.5352 0.023437 10.348-1.4297 11.41-1.5898 1.1641-1.5938 1.3125-0.039062 1.9102 1.043 0.39844 1.7422 1.9375 1.8281 4.0234 0.11719 2.8242 0.21875 2.957 0.61328 0.80469 0.86328-4.6914 1.9766-5.1445 12.637-5.1445 8.2188 0 10.164 0.29688 10.676 1.625 1.2188 3.1719 0.67969 18.652-0.6875 19.785-0.72266 0.59766-3.6172 1.2656-6.4297 1.4844l-5.1172 0.39453 5.8047 0.18359c6.5508 0.21094 6.957 0.67188 7.2305 8.2422 0.16797 4.6133 0.19531 4.5625 0.77344-1.3711l0.59766-6.1719 10.203-0.29688c7.4688-0.21875 10.43 0.058594 11.043 1.0273 0.46094 0.73047 0.84766 5.3203 0.85547 10.203 0.015624 8.0508-0.19922 9.0273-2.2969 10.492-1.8633 1.2969-1.9727 1.625-0.58203 1.668 0.95312 0.03125 2.0586 1.0898 2.4609 2.3516l0.73047 2.3008 0.85156-2.3008c0.80078-2.168 1.4336-2.2969 11.059-2.2969 11.48 0 11.344-0.097656 11.637 8.0586 0.16797 4.6133 0.19531 4.5625 0.77344-1.3711l0.59766-6.1719 20.984-0.58594 0.55859 3.3789c0.30469 1.8594 0.70703 5 0.89062 6.9805 0.21484 2.3125 0.49219 1.2109 0.78125-3.0859l0.44922-6.6875h20.578l0.62891 4.1133c0.34375 2.2617 0.69141 3.043 0.77344 1.7344 0.32422-5.3047 1.8008-6.3516 9.1836-6.5234l6.9062-0.16406-6.8594-0.60938c-3.7734-0.33594-7.2461-0.99219-7.7148-1.4609-1.3945-1.3984-1.7109-16.66-0.39453-19.121 1.1094-2.0742 1.8477-2.1992 11.168-1.9258l9.9727 0.29297 0.58984 7.7148c0.57812 7.6055 0.58984 7.6289 0.77344 1.7344 0.25-8.0625 1.3867-9.9375 6.1367-10.082l3.8203-0.11719-3.9648-0.76562c-2.1797-0.42188-4.3711-1.4102-4.8711-2.1953-1.4023-2.2148-1.1328-16.727 0.34766-18.688 0.90625-1.1992 3.2617-1.8086 7.9727-2.0547l6.6875-0.35547-6.9062-0.19922c-8.4219-0.24219-9.0391-1.043-9.0391-11.766 0-9.5938 0.92969-10.879 8.2305-11.348l5.6602-0.36328-5.8789-0.19141c-7.2656-0.23438-8.0117-1.3242-8.0117-11.758 0-7.5586 0.97656-10.258 4.1172-11.383 1.2344-0.44141 1.1914-0.57031-0.21875-0.63281-2.1328-0.097656-3.8398-3.0273-4.0508-6.957-0.10156-1.875-0.37109-1.2617-0.77344 1.7344l-0.61719 4.6289-9.9727 0.29297c-9.2227 0.26953-10.062 0.13281-11.125-1.8555-1.1836-2.207-0.76562-19.102 0.50391-20.371 0.36328-0.36328 3.0625-0.94922 5.9961-1.3086l5.3359-0.64844-5.3633-0.14453c-6.207-0.16797-7.3945-1.4922-7.668-8.5664-0.15234-3.875-0.25-3.6523-0.77344 1.7344l-0.59766 6.1719h-20.578v-11.27c0-11.145 0.027344-11.281 2.5703-11.988 2.375-0.66016 2.3984-0.72266 0.30859-0.81641-1.2461-0.054687-2.7227-0.91406-3.2812-1.9023-0.96875-1.7109-1.0898-1.707-2.3828 0.039063-1.1719 1.5859-2.7227 1.8008-11.121 1.543l-9.7578-0.30078-0.60547-5.6602c-0.53516-5.0234-0.62109-5.1914-0.77344-1.4844-0.28516 7.1445-1.3594 7.7852-12.531 7.4414l-9.7578-0.30078-0.59375-6.6875zm16.016 15.031c4.0156 0.027343 5.1602 0.4375 5.9922 1.5703 1.7422 2.3867 1.7695 19.027 0.035156 20.766-0.875 0.875-4.3242 1.1797-11.059 0.97656l-9.793-0.28906v-22.633l9.7578-0.30078c2.0703-0.0625 3.7305-0.097656 5.0703-0.089843zm23.664 0c4.0156 0.027343 5.1602 0.4375 5.9922 1.5703 1.5977 2.1875 1.7578 17.129 0.21484 20.012-0.98438 1.8359-2.0234 2-11.059 1.7344l-9.9766-0.29297v-22.633l9.7578-0.30078c2.0703-0.0625 3.7305-0.097656 5.0703-0.089843zm-48.316 0.039062c3.7656 0.046875 6.1484 0.36719 6.8438 0.94531 1.0352 0.85938 1.4375 3.7461 1.4375 10.246 0 4.9766-0.28906 9.7969-0.63672 10.711-0.53906 1.4062-2.2383 1.6172-11.059 1.3711l-10.422-0.28906v-22.633l9.6211-0.29687c1.5508-0.046876 2.9609-0.066407 4.2148-0.050782zm-3.1992 24.477c4.6484-0.046874 9.332 0.37109 10.25 1.2852 1.7031 1.7031 1.6758 19.52-0.03125 21.227-0.87109 0.875-4.3242 1.1797-11.059 0.97656l-9.793-0.28906-0.29688-10.137c-0.19141-6.5898 0.12109-10.641 0.89844-11.574 0.77344-0.93359 5.3867-1.4414 10.035-1.4883zm-24.18 0.050782c6.043 0 9.9844 0.45312 10.766 1.2344s1.2344 4.6875 1.2344 10.598-0.45703 9.8164-1.2344 10.598c-0.78125 0.78125-4.7227 1.2344-10.766 1.2344-11.434 0-11.664-0.23438-11.664-11.832s0.23047-11.832 11.664-11.832zm48.102 0c7.9414 0 9.2344 0.25391 10.164 1.9883 1.3906 2.5977 1.375 17.109-0.019532 19.719-0.98438 1.8359-2.0234 2-11.059 1.7344l-9.9766-0.29297-0.29688-10.137c-0.19141-6.5898 0.12109-10.641 0.89844-11.574 0.85547-1.0312 3.7539-1.4375 10.289-1.4375zm23.797 0.015625c7.8203-0.015625 9.1016 0.23828 10.031 1.9727 1.3906 2.5977 1.375 17.109-0.019531 19.719-0.98438 1.8359-2.0234 2-11.059 1.7344l-9.9766-0.29297-0.29297-10.719c-0.21875-7.8828 0.054687-10.941 1.0273-11.559 0.72656-0.46094 5.3594-0.84766 10.289-0.85547zm22.41 0.019531c4.1914-0.054688 8.4883 0.12891 9.6914 0.58984 1.3359 0.51172 1.625 2.5 1.625 11.148 0 5.7852-0.32422 10.844-0.71875 11.242-0.39453 0.39453-5.1406 0.58984-10.547 0.42578l-9.8242-0.28906-0.29297-10.719c-0.21875-7.8828 0.054688-10.941 1.0273-11.559 0.76953-0.48828 4.8477-0.78125 9.0391-0.83594zm-94.309 24.656c6.043 0 9.9844 0.45312 10.766 1.2344 0.76953 0.76953 1.2344 4.5742 1.2344 10.082 0 5.5117-0.46484 9.3125-1.2344 10.082-0.78125 0.78125-4.7227 1.2344-10.766 1.2344-11.371 0-11.664-0.28516-11.664-11.316s0.29297-11.316 11.664-11.316zm52.035 0.12891c4.0156 0.027344 5.1602 0.4375 5.9922 1.5703 1.5938 2.1797 1.75 16.113 0.21484 18.984-0.98438 1.8359-2.0234 2-11.059 1.7344l-9.9766-0.29297v-21.609l9.7578-0.30078c2.0703-0.0625 3.7305-0.097656 5.0703-0.089844zm23.664 0c4.0156 0.027344 5.1602 0.4375 5.9922 1.5703 1.5938 2.1797 1.75 16.113 0.21484 18.984-0.98437 1.8359-2.0234 2-11.059 1.7344l-9.9766-0.29297v-21.609l9.7578-0.30078c2.0703-0.0625 3.7305-0.097656 5.0703-0.089844zm39.141 0.003906c1.1289 0.011719 2.4141 0.046876 3.8867 0.089844l10.051 0.29688 0.30078 9.6953c0.16406 5.332 0.0625 10.309-0.22656 11.059-0.38281 1-3.1445 1.3633-10.363 1.3633-11.5 0-11.586-0.085938-11.586-11.316 0-9.9609 0.046875-11.25 7.9414-11.188zm-87.457 0.035157c3.7656 0.046875 6.1484 0.36719 6.8438 0.94531 1.8672 1.5469 2.0352 18.453 0.20312 20.285-1.4102 1.4102-18.031 1.707-20.152 0.36328-0.96875-0.61719-1.2461-3.5742-1.0273-11.043l0.29688-10.203 9.6211-0.29688c1.5508-0.046875 2.9609-0.066406 4.2148-0.050781zm57.152 0.34766h20.578l0.30078 9.6953c0.16406 5.332 0.054687 10.328-0.23828 11.098-0.41406 1.0781-2.8516 1.332-10.586 1.1055l-10.051-0.29297v-10.805zm24.156 23.074 10.039 0.29688 10.043 0.29297 0.29688 10.203c0.21875 7.4688-0.058594 10.43-1.0273 11.043-1.8281 1.1602-17.438 1.0625-19.309-0.12109-1.918-1.2109-2.7383-14.715-1.1484-18.848zm-108.69 0.074218c6.043 0 9.9844 0.45313 10.766 1.2344 0.76953 0.76953 1.2344 4.5742 1.2344 10.082 0 5.5117-0.46484 9.3125-1.2344 10.082-0.78125 0.78125-4.7227 1.2344-10.766 1.2344-11.371 0-11.664-0.28516-11.664-11.316s0.29297-11.316 11.664-11.316zm52.035 0.12891c4.0156 0.027343 5.1602 0.4375 5.9922 1.5703 1.582 2.1641 1.7578 16.105 0.23438 18.945-0.92969 1.7344-2.2109 1.9883-10.031 1.9727-4.9297-0.011719-9.5625-0.39453-10.293-0.85547-0.96875-0.61719-1.2461-3.5742-1.0273-11.043l0.29688-10.203 9.7578-0.30078c2.0703-0.0625 3.7305-0.097656 5.0703-0.089844zm23.664 0c4.0156 0.027343 5.1602 0.4375 5.9922 1.5703 1.5469 2.1172 1.75 14.484 0.30078 18.297-0.97266 2.5586-1.2812 2.6406-10.031 2.625-4.9648-0.011718-9.625-0.39453-10.352-0.85547-0.96875-0.61719-1.2461-3.5742-1.0273-11.043l0.29688-10.203 9.7578-0.30078c2.0703-0.0625 3.7305-0.097656 5.0703-0.089843zm-48.316 0.039062c3.7656 0.046875 6.1484 0.36719 6.8438 0.94531 1.8672 1.5469 2.0352 18.453 0.20312 20.285s-18.734 1.6602-20.281-0.20703c-0.76953-0.92969-1.0898-4.8516-0.89844-11.059l0.29688-9.6211 9.6211-0.29688c1.5508-0.046875 2.9609-0.066406 4.2148-0.050781zm57.152 0.34766h20.578l0.29688 10.203c0.21875 7.4688-0.058594 10.43-1.0273 11.043-0.73047 0.46094-5.0312 0.83984-9.5586 0.83984-4.5273 0-8.8281-0.37891-9.5547-0.83984-0.96875-0.61719-1.2461-3.5742-1.0273-11.043zm-8.168 23.262c4.1914 0.015625 4.8086 0.47656 5.6406 2.0312 1.7344 3.2383 0.89844 18.234-1.0859 19.488-1.8789 1.1875-17.488 1.293-19.32 0.12891-0.96875-0.61719-1.2461-3.5742-1.0273-11.043l0.29688-10.203 9.9766-0.29297c2.3281-0.070312 4.125-0.11328 5.5234-0.10547zm36.91 0c1.3984-0.003906 3.1914 0.035156 5.5234 0.10547l9.9727 0.29297 0.29688 10.203c0.21875 7.4688-0.058594 10.43-1.0273 11.043-1.8359 1.1641-17.441 1.0586-19.32-0.12891-1.9844-1.2539-2.8164-16.25-1.082-19.488 0.83203-1.5547 1.4492-2.0156 5.6406-2.0312zm-85.898 0.054688c3.7656 0.046875 6.1484 0.36719 6.8438 0.94531 2.1484 1.7812 2.0039 17.723-0.17969 19.902-2.1836 2.1836-18.121 2.3242-19.902 0.17578-0.76953-0.92969-1.0898-4.8516-0.89844-11.059l0.29688-9.6211 9.6211-0.29688c1.5508-0.046875 2.9609-0.066407 4.2148-0.050781zm23.664 0c3.7656 0.046875 6.1484 0.36719 6.8438 0.94531 2.1484 1.7812 2.0039 17.723-0.17969 19.902-2.1836 2.1836-18.121 2.3242-19.902 0.17578-0.76953-0.92969-1.0898-4.8516-0.89844-11.059l0.29688-9.6211 9.6211-0.29688c1.5508-0.046875 2.9609-0.066407 4.2148-0.050781zm33.488 0.34766h20.578l0.29687 10.203c0.21875 7.4688-0.058593 10.43-1.0273 11.043-0.73047 0.46094-5.0312 0.83984-9.5586 0.83984s-8.8281-0.37891-9.5547-0.83984c-0.96875-0.61719-1.2461-3.5742-1.0273-11.043zm-10.016 23.285c7.957-0.019531 8.4219 1.4102 8.6641 10.094l0.1875 6.75 1.1641-16.461h20.578l0.29687 10.203c0.21875 7.4688-0.058593 10.43-1.0273 11.043-1.5391 0.97656-16.324 1.1719-18.73 0.24609-0.89453-0.34375-1.6289-1.3555-1.6289-2.25 0-1.2812-0.44531-1.1484-2.0977 0.625-1.832 1.9648-3.168 2.25-10.547 2.2344-4.6445-0.011719-9.0469-0.39453-9.7734-0.85547-0.96875-0.61719-1.2461-3.5742-1.0273-11.043l0.29688-10.203 9.7578-0.30078c1.4648-0.046876 2.7539-0.078126 3.8906-0.082032zm-23.473 0.03125c3.7656 0.046875 6.1484 0.36719 6.8438 0.94531 2.1484 1.7812 2.0039 17.723-0.17969 19.902-1.2109 1.2109-3.7383 1.6133-10.031 1.6016-4.6289-0.011719-9.0117-0.39453-9.7383-0.85547-0.96875-0.61719-1.2461-3.5742-1.0273-11.043l0.29688-10.203 9.6211-0.29687c1.5508-0.046876 2.9609-0.066407 4.2148-0.050782zm163.88 91.09-15.934 15.969 15.184 15.223c5.293-5.2969 10.59-10.59 15.887-15.887zm25.332 22.625-17.34 18.879 5.7695 7.1602h38.938zm40.738 38.387-39.559 0.79688 13.941 14.633 39.559-0.80078zm-14.297 27.777 14.293 14.402h42.184l-14.293-14.402zm68.18 26.75-39.941 0.87109c0 1.1562 22.512 22.121 25.398 23.652 1.2344 0.65625 2.3945 1.1562 2.5703 1.1133 5.8984-1.4766 17.301-12.996 17.301-17.484-0.12891-3.0391-3.6523-5.7617-5.3281-8.1562z"/>
 </g>
</svg>
