<?xml version="1.0" encoding="UTF-8"?>
<svg width="512pt" height="512pt" version="1.1" viewBox="0 0 512 512" xmlns="http://www.w3.org/2000/svg">
 <g id="coffee">
  <path d="m74.668 408.64c39.57 27.094 98.664 39.359 156.16 39.359 39.141 0.44141 78.082-5.6875 115.2-18.133 40.852-14.828 66.559-37.441 74.668-65.281h-0.003906c1.5625-5.6836-1.7812-11.559-7.4648-13.121-5.6836-1.5586-11.559 1.7852-13.121 7.4688-7.2539 26.348-37.121 42.668-61.012 50.879-78.398 28.586-195.95 19.84-251.52-18.559-15.148-10.668-32.641-26.027-30.508-40.852 2.1328-14.828 24.961-27.945 38.613-33.707l4.5859 5.1211v-0.003906c16.656 16.852 36.641 30.051 58.68 38.754 22.035 8.707 45.645 12.727 69.32 11.809 73.281 0 128.75-32.961 161.07-95.254h25.602c21.816 0.91406 42.465-9.8789 54.164-28.316 11.703-18.438 12.676-41.715 2.5625-61.066-10.117-19.352-29.789-31.836-51.605-32.75 0.77344-7.7969 0.98828-15.641 0.63672-23.469v-0.53516c-2.3438-43.836-97.918-66.984-192.64-66.984-94.723 0-190.08 23.254-191.25 67.414 0 4.375-3.0938 97.922 44.906 167.36-16.641 7.6797-42.668 23.359-46.078 48.105-3.0938 20.906 10.133 41.602 39.039 61.762zm380.91-192.86c-0.058594 10.762-4.3984 21.055-12.066 28.602-7.668 7.5469-18.027 11.727-28.789 11.613h-15.785c0.24219-0.59375 0.45703-1.1992 0.64062-1.8125 2.2383-5.6523 4.1602-11.414 5.8672-17.066 0.53516-1.3867 0.96094-2.8789 1.3867-4.375 1.8125-6.1875 3.4141-12.266 4.6914-18.238 0.050781-0.71094 0.050781-1.4258 0-2.1328 1.1719-5.4414 2.1328-10.668 2.9883-15.895l1.4922-4.4805c0.85156-5.5469 1.4922-10.668 2.0273-15.895 10.094 0.69531 19.562 5.1641 26.516 12.512 6.957 7.3516 10.895 17.051 11.031 27.168zm-227.52-130.45c106.03 0 170.67 27.199 170.67 46.719 0 6.8281-9.8125 15.148-27.625 23.254l-6.3984 2.5586-0.007813 0.003907c-90.66-14.895-183.15-14.895-273.81 0-21.332-8.4258-33.387-17.922-33.387-25.922 0.42969-19.199 65.176-46.613 170.56-46.613zm82.027 86.719c-11.309 1.9219-23.359 3.5195-36.055 4.6914-15.148 1.0664-30.078 1.9219-45.973 1.9219v0.003907c-27.332 0.12109-54.625-2.0195-81.602-6.4023 54.426-5.0742 109.2-5.0742 163.62 0zm-248.75-5.332 2.4531 1.3867 7.6797 4.1602 1.8125 0.85156c3.3086 1.6016 6.7188 3.0938 10.668 4.4805l2.1328 0.85156 1.8125 0.64062 8.1055 2.7734 3.0938 1.0664 12.48 3.625h2.0273l11.52 2.668 3.9453 0.85156 12.48 2.3477h1.707c4.8008 0.85156 9.707 1.6016 14.613 2.2383h3.9453l12.055 1.3867h3.625l15.254 1.1719h3.0938l12.691 0.64062h19.84c16.535 0 32-0.96094 47.68-2.0273l0.003907 0.007813c35.836-2.3047 71.098-10.148 104.53-23.254l2.4531-1.0664 1.2812-0.64062 2.8789-1.3867 0.96094-0.53516 3.7344-1.9219 1.2812-0.74609 3.8398-2.3477v3.3086c0 2.0273 0 3.9453-0.53516 6.0781-0.53516 2.1328 0 3.1992 0 4.8008 0 1.6016-0.53516 4.0547-0.85156 6.0781-0.32031 2.0273-0.53516 3.7344-0.85156 5.5469l-0.96094 6.1875-1.2812 6.0781c0 2.0273-0.74609 4.1602-1.2812 6.1875-0.53516 2.0273-1.0664 4.4805-1.6016 6.6133-0.53516 2.1328-0.96094 4.0547-1.4922 6.0781-0.53516 2.0273-1.3867 4.6914-2.1328 7.0391s-1.1719 3.9453-1.8125 5.8672c-0.64062 1.9219-1.9219 5.2266-2.8789 7.8945-0.96094 2.668-1.1719 3.4141-1.9219 5.0117v0.007812c-1.6641 4.3633-3.5547 8.6328-5.6523 12.801-28.48 59.199-77.227 89.172-144.96 89.172-42.082 1.8125-82.992-14.133-112.75-43.945-40-41.492-52.16-103.46-55.895-141.23z"/>
  <path d="m227.84 331.95c27.184-0.15625 53.805-7.7266 77-21.902 23.199-14.172 42.086-34.406 54.625-58.523 2.0469-5.207-0.28125-11.109-5.3281-13.523-5.0508-2.4141-11.102-0.51172-13.871 4.3516-10.809 20.484-26.973 37.656-46.773 49.676-19.797 12.023-42.488 18.449-65.652 18.59-5.8906 0-10.668 4.7773-10.668 10.668s4.7773 10.664 10.668 10.664z"/>
 </g>
</svg>
