<?xml version="1.0" encoding="UTF-8"?>
<svg width="512pt" height="512pt" version="1.1" viewBox="0 0 512 512" xmlns="http://www.w3.org/2000/svg">
 <g id="india" fill-rule="evenodd">
  <path d="m132.54 29.531c0 5.2422-7.8672 5.2422-7.8672 0s7.8672-5.2422 7.8672 0"/>
  <path d="m146.7 29.531c0 5.2422-7.8672 5.2422-7.8672 0s7.8672-5.2422 7.8672 0"/>
  <path d="m118.38 43.688c0 5.2461-7.8633 5.2461-7.8633 0 0-5.2422 7.8633-5.2422 7.8633 0"/>
  <path d="m132.54 43.688c0 5.2461-7.8672 5.2461-7.8672 0 0-5.2422 7.8672-5.2422 7.8672 0"/>
  <path d="m146.7 43.688c0 5.2461-7.8672 5.2461-7.8672 0 0-5.2422 7.8672-5.2422 7.8672 0"/>
  <path d="m160.85 43.688c0 5.2461-7.8672 5.2461-7.8672 0 0-5.2422 7.8672-5.2422 7.8672 0"/>
  <path d="m175 43.688c0 5.2461-7.8633 5.2461-7.8633 0 0-5.2422 7.8633-5.2422 7.8633 0"/>
  <path d="m132.54 57.84c0 5.2422-7.8672 5.2422-7.8672 0 0-5.2422 7.8672-5.2422 7.8672 0"/>
  <path d="m146.7 57.84c0 5.2422-7.8672 5.2422-7.8672 0 0-5.2422 7.8672-5.2422 7.8672 0"/>
  <path d="m160.85 57.84c0 5.2422-7.8672 5.2422-7.8672 0 0-5.2422 7.8672-5.2422 7.8672 0"/>
  <path d="m175 57.84c0 5.2422-7.8633 5.2422-7.8633 0 0-5.2422 7.8633-5.2422 7.8633 0"/>
  <path d="m189.16 57.84c0 5.2422-7.8633 5.2422-7.8633 0 0-5.2422 7.8633-5.2422 7.8633 0"/>
  <path d="m203.32 57.84c0 5.2422-7.8672 5.2422-7.8672 0 0-5.2422 7.8672-5.2422 7.8672 0"/>
  <path d="m217.47 57.84c0 5.2422-7.8672 5.2422-7.8672 0 0-5.2422 7.8672-5.2422 7.8672 0"/>
  <path d="m132.54 71.996c0 5.2461-7.8672 5.2461-7.8672 0 0-5.2422 7.8672-5.2422 7.8672 0"/>
  <path d="m146.7 71.996c0 5.2461-7.8672 5.2461-7.8672 0 0-5.2422 7.8672-5.2422 7.8672 0"/>
  <path d="m160.85 71.996c0 5.2461-7.8672 5.2461-7.8672 0 0-5.2422 7.8672-5.2422 7.8672 0"/>
  <path d="m175 71.996c0 5.2461-7.8633 5.2461-7.8633 0 0-5.2422 7.8633-5.2422 7.8633 0"/>
  <path d="m189.16 71.996c0 5.2461-7.8633 5.2461-7.8633 0 0-5.2422 7.8633-5.2422 7.8633 0"/>
  <path d="m203.32 71.996c0 5.2461-7.8672 5.2461-7.8672 0 0-5.2422 7.8672-5.2422 7.8672 0"/>
  <path d="m132.54 86.148c0 5.2422-7.8672 5.2422-7.8672 0 0-5.2422 7.8672-5.2422 7.8672 0"/>
  <path d="m146.7 86.148c0 5.2422-7.8672 5.2422-7.8672 0 0-5.2422 7.8672-5.2422 7.8672 0"/>
  <path d="m160.85 86.148c0 5.2422-7.8672 5.2422-7.8672 0 0-5.2422 7.8672-5.2422 7.8672 0"/>
  <path d="m175 86.148c0 5.2422-7.8633 5.2422-7.8633 0 0-5.2422 7.8633-5.2422 7.8633 0"/>
  <path d="m189.16 86.148c0 5.2422-7.8633 5.2422-7.8633 0 0-5.2422 7.8633-5.2422 7.8633 0"/>
  <path d="m203.32 86.148c0 5.2422-7.8672 5.2422-7.8672 0 0-5.2422 7.8672-5.2422 7.8672 0"/>
  <path d="m146.7 100.3c0 5.2422-7.8672 5.2422-7.8672 0 0-5.2422 7.8672-5.2422 7.8672 0"/>
  <path d="m160.85 100.3c0 5.2422-7.8672 5.2422-7.8672 0 0-5.2422 7.8672-5.2422 7.8672 0"/>
  <path d="m175 100.3c0 5.2422-7.8633 5.2422-7.8633 0 0-5.2422 7.8633-5.2422 7.8633 0"/>
  <path d="m189.16 100.3c0 5.2422-7.8633 5.2422-7.8633 0 0-5.2422 7.8633-5.2422 7.8633 0"/>
  <path d="m203.32 100.3c0 5.2422-7.8672 5.2422-7.8672 0 0-5.2422 7.8672-5.2422 7.8672 0"/>
  <path d="m146.7 114.46c0 5.2422-7.8672 5.2422-7.8672 0 0-5.2422 7.8672-5.2422 7.8672 0"/>
  <path d="m160.85 114.46c0 5.2422-7.8672 5.2422-7.8672 0 0-5.2422 7.8672-5.2422 7.8672 0"/>
  <path d="m175 114.46c0 5.2422-7.8633 5.2422-7.8633 0 0-5.2422 7.8633-5.2422 7.8633 0"/>
  <path d="m189.16 114.46c0 5.2422-7.8633 5.2422-7.8633 0 0-5.2422 7.8633-5.2422 7.8633 0"/>
  <path d="m203.32 114.46c0 5.2422-7.8672 5.2422-7.8672 0 0-5.2422 7.8672-5.2422 7.8672 0"/>
  <path d="m146.7 128.61c0 5.2422-7.8672 5.2422-7.8672 0s7.8672-5.2422 7.8672 0"/>
  <path d="m160.85 128.61c0 5.2422-7.8672 5.2422-7.8672 0s7.8672-5.2422 7.8672 0"/>
  <path d="m175 128.61c0 5.2422-7.8633 5.2422-7.8633 0s7.8633-5.2422 7.8633 0"/>
  <path d="m189.16 128.61c0 5.2422-7.8633 5.2422-7.8633 0s7.8633-5.2422 7.8633 0"/>
  <path d="m203.32 128.61c0 5.2422-7.8672 5.2422-7.8672 0s7.8672-5.2422 7.8672 0"/>
  <path d="m132.54 142.77c0 5.2461-7.8672 5.2461-7.8672 0 0-5.2422 7.8672-5.2422 7.8672 0"/>
  <path d="m146.7 142.77c0 5.2461-7.8672 5.2461-7.8672 0 0-5.2422 7.8672-5.2422 7.8672 0"/>
  <path d="m160.85 142.77c0 5.2461-7.8672 5.2461-7.8672 0 0-5.2422 7.8672-5.2422 7.8672 0"/>
  <path d="m175 142.77c0 5.2461-7.8633 5.2461-7.8633 0 0-5.2422 7.8633-5.2422 7.8633 0"/>
  <path d="m189.16 142.77c0 5.2461-7.8633 5.2461-7.8633 0 0-5.2422 7.8633-5.2422 7.8633 0"/>
  <path d="m203.32 142.77c0 5.2461-7.8672 5.2461-7.8672 0 0-5.2422 7.8672-5.2422 7.8672 0"/>
  <path d="m217.47 142.77c0 5.2461-7.8672 5.2461-7.8672 0 0-5.2422 7.8672-5.2422 7.8672 0"/>
  <path d="m231.62 142.77c0 5.2461-7.8672 5.2461-7.8672 0 0-5.2422 7.8672-5.2422 7.8672 0"/>
  <path d="m132.54 156.92c0 5.2422-7.8672 5.2422-7.8672 0s7.8672-5.2422 7.8672 0"/>
  <path d="m146.7 156.92c0 5.2422-7.8672 5.2422-7.8672 0s7.8672-5.2422 7.8672 0"/>
  <path d="m160.85 156.92c0 5.2422-7.8672 5.2422-7.8672 0s7.8672-5.2422 7.8672 0"/>
  <path d="m175 156.92c0 5.2422-7.8633 5.2422-7.8633 0s7.8633-5.2422 7.8633 0"/>
  <path d="m189.16 156.92c0 5.2422-7.8633 5.2422-7.8633 0s7.8633-5.2422 7.8633 0"/>
  <path d="m203.32 156.92c0 5.2422-7.8672 5.2422-7.8672 0s7.8672-5.2422 7.8672 0"/>
  <path d="m217.47 156.92c0 5.2422-7.8672 5.2422-7.8672 0s7.8672-5.2422 7.8672 0"/>
  <path d="m118.38 171.07c0 5.2422-7.8633 5.2422-7.8633 0 0-5.2422 7.8633-5.2422 7.8633 0"/>
  <path d="m132.54 171.07c0 5.2422-7.8672 5.2422-7.8672 0 0-5.2422 7.8672-5.2422 7.8672 0"/>
  <path d="m146.7 171.07c0 5.2422-7.8672 5.2422-7.8672 0 0-5.2422 7.8672-5.2422 7.8672 0"/>
  <path d="m160.85 171.07c0 5.2422-7.8672 5.2422-7.8672 0 0-5.2422 7.8672-5.2422 7.8672 0"/>
  <path d="m175 171.07c0 5.2422-7.8633 5.2422-7.8633 0 0-5.2422 7.8633-5.2422 7.8633 0"/>
  <path d="m189.16 171.07c0 5.2422-7.8633 5.2422-7.8633 0 0-5.2422 7.8633-5.2422 7.8633 0"/>
  <path d="m203.32 171.07c0 5.2422-7.8672 5.2422-7.8672 0 0-5.2422 7.8672-5.2422 7.8672 0"/>
  <path d="m217.47 171.07c0 5.2422-7.8672 5.2422-7.8672 0 0-5.2422 7.8672-5.2422 7.8672 0"/>
  <path d="m231.62 171.07c0 5.2422-7.8672 5.2422-7.8672 0 0-5.2422 7.8672-5.2422 7.8672 0"/>
  <path d="m429.78 171.07c0 5.2422-7.8633 5.2422-7.8633 0 0-5.2422 7.8633-5.2422 7.8633 0"/>
  <path d="m443.93 171.07c0 5.2422-7.8633 5.2422-7.8633 0 0-5.2422 7.8633-5.2422 7.8633 0"/>
  <path d="m458.09 171.07c0 5.2422-7.8633 5.2422-7.8633 0 0-5.2422 7.8633-5.2422 7.8633 0"/>
  <path d="m104.23 185.23c0 5.2422-7.8672 5.2422-7.8672 0 0-5.2422 7.8672-5.2422 7.8672 0"/>
  <path d="m118.38 185.23c0 5.2422-7.8633 5.2422-7.8633 0 0-5.2422 7.8633-5.2422 7.8633 0"/>
  <path d="m132.54 185.23c0 5.2422-7.8672 5.2422-7.8672 0 0-5.2422 7.8672-5.2422 7.8672 0"/>
  <path d="m146.7 185.23c0 5.2422-7.8672 5.2422-7.8672 0 0-5.2422 7.8672-5.2422 7.8672 0"/>
  <path d="m160.85 185.23c0 5.2422-7.8672 5.2422-7.8672 0 0-5.2422 7.8672-5.2422 7.8672 0"/>
  <path d="m175 185.23c0 5.2422-7.8633 5.2422-7.8633 0 0-5.2422 7.8633-5.2422 7.8633 0"/>
  <path d="m189.16 185.23c0 5.2422-7.8633 5.2422-7.8633 0 0-5.2422 7.8633-5.2422 7.8633 0"/>
  <path d="m203.32 185.23c0 5.2422-7.8672 5.2422-7.8672 0 0-5.2422 7.8672-5.2422 7.8672 0"/>
  <path d="m217.47 185.23c0 5.2422-7.8672 5.2422-7.8672 0 0-5.2422 7.8672-5.2422 7.8672 0"/>
  <path d="m231.62 185.23c0 5.2422-7.8672 5.2422-7.8672 0 0-5.2422 7.8672-5.2422 7.8672 0"/>
  <path d="m245.77 185.23c0 5.2422-7.8633 5.2422-7.8633 0 0-5.2422 7.8633-5.2422 7.8633 0"/>
  <path d="m344.86 185.23c0 5.2422-7.8672 5.2422-7.8672 0 0-5.2422 7.8672-5.2422 7.8672 0"/>
  <path d="m415.62 185.23c0 5.2422-7.8633 5.2422-7.8633 0 0-5.2422 7.8633-5.2422 7.8633 0"/>
  <path d="m429.78 185.23c0 5.2422-7.8633 5.2422-7.8633 0 0-5.2422 7.8633-5.2422 7.8633 0"/>
  <path d="m443.93 185.23c0 5.2422-7.8633 5.2422-7.8633 0 0-5.2422 7.8633-5.2422 7.8633 0"/>
  <path d="m458.09 185.23c0 5.2422-7.8633 5.2422-7.8633 0 0-5.2422 7.8633-5.2422 7.8633 0"/>
  <path d="m472.24 185.23c0 5.2422-7.8633 5.2422-7.8633 0 0-5.2422 7.8633-5.2422 7.8633 0"/>
  <path d="m75.926 199.38c0 5.2422-7.8672 5.2422-7.8672 0 0-5.2422 7.8672-5.2422 7.8672 0"/>
  <path d="m90.074 199.38c0 5.2422-7.8633 5.2422-7.8633 0 0-5.2422 7.8633-5.2422 7.8633 0"/>
  <path d="m104.23 199.38c0 5.2422-7.8672 5.2422-7.8672 0 0-5.2422 7.8672-5.2422 7.8672 0"/>
  <path d="m118.38 199.38c0 5.2422-7.8633 5.2422-7.8633 0 0-5.2422 7.8633-5.2422 7.8633 0"/>
  <path d="m132.54 199.38c0 5.2422-7.8672 5.2422-7.8672 0 0-5.2422 7.8672-5.2422 7.8672 0"/>
  <path d="m146.7 199.38c0 5.2422-7.8672 5.2422-7.8672 0 0-5.2422 7.8672-5.2422 7.8672 0"/>
  <path d="m160.85 199.38c0 5.2422-7.8672 5.2422-7.8672 0 0-5.2422 7.8672-5.2422 7.8672 0"/>
  <path d="m175 199.38c0 5.2422-7.8633 5.2422-7.8633 0 0-5.2422 7.8633-5.2422 7.8633 0"/>
  <path d="m189.16 199.38c0 5.2422-7.8633 5.2422-7.8633 0 0-5.2422 7.8633-5.2422 7.8633 0"/>
  <path d="m203.32 199.38c0 5.2422-7.8672 5.2422-7.8672 0 0-5.2422 7.8672-5.2422 7.8672 0"/>
  <path d="m217.47 199.38c0 5.2422-7.8672 5.2422-7.8672 0 0-5.2422 7.8672-5.2422 7.8672 0"/>
  <path d="m231.62 199.38c0 5.2422-7.8672 5.2422-7.8672 0 0-5.2422 7.8672-5.2422 7.8672 0"/>
  <path d="m245.77 199.38c0 5.2422-7.8633 5.2422-7.8633 0 0-5.2422 7.8633-5.2422 7.8633 0"/>
  <path d="m259.93 199.38c0 5.2422-7.8633 5.2422-7.8633 0 0-5.2422 7.8633-5.2422 7.8633 0"/>
  <path d="m274.08 199.38c0 5.2422-7.8633 5.2422-7.8633 0 0-5.2422 7.8633-5.2422 7.8633 0"/>
  <path d="m288.24 199.38c0 5.2422-7.8672 5.2422-7.8672 0 0-5.2422 7.8672-5.2422 7.8672 0"/>
  <path d="m344.86 199.38c0 5.2422-7.8672 5.2422-7.8672 0 0-5.2422 7.8672-5.2422 7.8672 0"/>
  <path d="m401.47 199.38c0 5.2422-7.8633 5.2422-7.8633 0 0-5.2422 7.8633-5.2422 7.8633 0"/>
  <path d="m415.62 199.38c0 5.2422-7.8633 5.2422-7.8633 0 0-5.2422 7.8633-5.2422 7.8633 0"/>
  <path d="m429.78 199.38c0 5.2422-7.8633 5.2422-7.8633 0 0-5.2422 7.8633-5.2422 7.8633 0"/>
  <path d="m443.93 199.38c0 5.2422-7.8633 5.2422-7.8633 0 0-5.2422 7.8633-5.2422 7.8633 0"/>
  <path d="m458.09 199.38c0 5.2422-7.8633 5.2422-7.8633 0 0-5.2422 7.8633-5.2422 7.8633 0"/>
  <path d="m90.074 213.54c0 5.2422-7.8633 5.2422-7.8633 0 0-5.2422 7.8633-5.2422 7.8633 0"/>
  <path d="m104.23 213.54c0 5.2422-7.8672 5.2422-7.8672 0 0-5.2422 7.8672-5.2422 7.8672 0"/>
  <path d="m118.38 213.54c0 5.2422-7.8633 5.2422-7.8633 0 0-5.2422 7.8633-5.2422 7.8633 0"/>
  <path d="m132.54 213.54c0 5.2422-7.8672 5.2422-7.8672 0 0-5.2422 7.8672-5.2422 7.8672 0"/>
  <path d="m146.7 213.54c0 5.2422-7.8672 5.2422-7.8672 0 0-5.2422 7.8672-5.2422 7.8672 0"/>
  <path d="m160.85 213.54c0 5.2422-7.8672 5.2422-7.8672 0 0-5.2422 7.8672-5.2422 7.8672 0"/>
  <path d="m175 213.54c0 5.2422-7.8633 5.2422-7.8633 0 0-5.2422 7.8633-5.2422 7.8633 0"/>
  <path d="m189.16 213.54c0 5.2422-7.8633 5.2422-7.8633 0 0-5.2422 7.8633-5.2422 7.8633 0"/>
  <path d="m203.32 213.54c0 5.2422-7.8672 5.2422-7.8672 0 0-5.2422 7.8672-5.2422 7.8672 0"/>
  <path d="m217.47 213.54c0 5.2422-7.8672 5.2422-7.8672 0 0-5.2422 7.8672-5.2422 7.8672 0"/>
  <path d="m231.62 213.54c0 5.2422-7.8672 5.2422-7.8672 0 0-5.2422 7.8672-5.2422 7.8672 0"/>
  <path d="m245.77 213.54c0 5.2422-7.8633 5.2422-7.8633 0 0-5.2422 7.8633-5.2422 7.8633 0"/>
  <path d="m259.93 213.54c0 5.2422-7.8633 5.2422-7.8633 0 0-5.2422 7.8633-5.2422 7.8633 0"/>
  <path d="m274.08 213.54c0 5.2422-7.8633 5.2422-7.8633 0 0-5.2422 7.8633-5.2422 7.8633 0"/>
  <path d="m288.24 213.54c0 5.2422-7.8672 5.2422-7.8672 0 0-5.2422 7.8672-5.2422 7.8672 0"/>
  <path d="m302.39 213.54c0 5.2422-7.8633 5.2422-7.8633 0 0-5.2422 7.8633-5.2422 7.8633 0"/>
  <path d="m316.54 213.54c0 5.2422-7.8633 5.2422-7.8633 0 0-5.2422 7.8633-5.2422 7.8633 0"/>
  <path d="m330.7 213.54c0 5.2422-7.8633 5.2422-7.8633 0 0-5.2422 7.8633-5.2422 7.8633 0"/>
  <path d="m344.86 213.54c0 5.2422-7.8672 5.2422-7.8672 0 0-5.2422 7.8672-5.2422 7.8672 0"/>
  <path d="m359.01 213.54c0 5.2422-7.8633 5.2422-7.8633 0 0-5.2422 7.8633-5.2422 7.8633 0"/>
  <path d="m373.16 213.54c0 5.2422-7.8633 5.2422-7.8633 0 0-5.2422 7.8633-5.2422 7.8633 0"/>
  <path d="m387.32 213.54c0 5.2422-7.8633 5.2422-7.8633 0 0-5.2422 7.8633-5.2422 7.8633 0"/>
  <path d="m401.47 213.54c0 5.2422-7.8633 5.2422-7.8633 0 0-5.2422 7.8633-5.2422 7.8633 0"/>
  <path d="m415.62 213.54c0 5.2422-7.8633 5.2422-7.8633 0 0-5.2422 7.8633-5.2422 7.8633 0"/>
  <path d="m429.78 213.54c0 5.2422-7.8633 5.2422-7.8633 0 0-5.2422 7.8633-5.2422 7.8633 0"/>
  <path d="m443.93 213.54c0 5.2422-7.8633 5.2422-7.8633 0 0-5.2422 7.8633-5.2422 7.8633 0"/>
  <path d="m90.074 227.7c0 5.2461-7.8633 5.2461-7.8633 0 0-5.2422 7.8633-5.2422 7.8633 0"/>
  <path d="m104.23 227.7c0 5.2461-7.8672 5.2461-7.8672 0 0-5.2422 7.8672-5.2422 7.8672 0"/>
  <path d="m118.38 227.7c0 5.2461-7.8633 5.2461-7.8633 0 0-5.2422 7.8633-5.2422 7.8633 0"/>
  <path d="m132.54 227.7c0 5.2461-7.8672 5.2461-7.8672 0 0-5.2422 7.8672-5.2422 7.8672 0"/>
  <path d="m146.7 227.7c0 5.2461-7.8672 5.2461-7.8672 0 0-5.2422 7.8672-5.2422 7.8672 0"/>
  <path d="m160.85 227.7c0 5.2461-7.8672 5.2461-7.8672 0 0-5.2422 7.8672-5.2422 7.8672 0"/>
  <path d="m175 227.7c0 5.2461-7.8633 5.2461-7.8633 0 0-5.2422 7.8633-5.2422 7.8633 0"/>
  <path d="m189.16 227.7c0 5.2461-7.8633 5.2461-7.8633 0 0-5.2422 7.8633-5.2422 7.8633 0"/>
  <path d="m203.32 227.7c0 5.2461-7.8672 5.2461-7.8672 0 0-5.2422 7.8672-5.2422 7.8672 0"/>
  <path d="m217.47 227.7c0 5.2461-7.8672 5.2461-7.8672 0 0-5.2422 7.8672-5.2422 7.8672 0"/>
  <path d="m231.62 227.7c0 5.2461-7.8672 5.2461-7.8672 0 0-5.2422 7.8672-5.2422 7.8672 0"/>
  <path d="m245.77 227.7c0 5.2461-7.8633 5.2461-7.8633 0 0-5.2422 7.8633-5.2422 7.8633 0"/>
  <path d="m259.93 227.7c0 5.2461-7.8633 5.2461-7.8633 0 0-5.2422 7.8633-5.2422 7.8633 0"/>
  <path d="m274.08 227.7c0 5.2461-7.8633 5.2461-7.8633 0 0-5.2422 7.8633-5.2422 7.8633 0"/>
  <path d="m288.24 227.7c0 5.2461-7.8672 5.2461-7.8672 0 0-5.2422 7.8672-5.2422 7.8672 0"/>
  <path d="m302.39 227.7c0 5.2461-7.8633 5.2461-7.8633 0 0-5.2422 7.8633-5.2422 7.8633 0"/>
  <path d="m316.54 227.7c0 5.2461-7.8633 5.2461-7.8633 0 0-5.2422 7.8633-5.2422 7.8633 0"/>
  <path d="m330.7 227.7c0 5.2461-7.8633 5.2461-7.8633 0 0-5.2422 7.8633-5.2422 7.8633 0"/>
  <path d="m344.86 227.7c0 5.2461-7.8672 5.2461-7.8672 0 0-5.2422 7.8672-5.2422 7.8672 0"/>
  <path d="m373.16 227.7c0 5.2461-7.8633 5.2461-7.8633 0 0-5.2422 7.8633-5.2422 7.8633 0"/>
  <path d="m387.32 227.7c0 5.2461-7.8633 5.2461-7.8633 0 0-5.2422 7.8633-5.2422 7.8633 0"/>
  <path d="m401.47 227.7c0 5.2461-7.8633 5.2461-7.8633 0 0-5.2422 7.8633-5.2422 7.8633 0"/>
  <path d="m415.62 227.7c0 5.2461-7.8633 5.2461-7.8633 0 0-5.2422 7.8633-5.2422 7.8633 0"/>
  <path d="m429.78 227.7c0 5.2461-7.8633 5.2461-7.8633 0 0-5.2422 7.8633-5.2422 7.8633 0"/>
  <path d="m90.074 241.85c0 5.2422-7.8633 5.2422-7.8633 0 0-5.2422 7.8633-5.2422 7.8633 0"/>
  <path d="m104.23 241.85c0 5.2422-7.8672 5.2422-7.8672 0 0-5.2422 7.8672-5.2422 7.8672 0"/>
  <path d="m118.38 241.85c0 5.2422-7.8633 5.2422-7.8633 0 0-5.2422 7.8633-5.2422 7.8633 0"/>
  <path d="m132.54 241.85c0 5.2422-7.8672 5.2422-7.8672 0 0-5.2422 7.8672-5.2422 7.8672 0"/>
  <path d="m146.7 241.85c0 5.2422-7.8672 5.2422-7.8672 0 0-5.2422 7.8672-5.2422 7.8672 0"/>
  <path d="m160.85 241.85c0 5.2422-7.8672 5.2422-7.8672 0 0-5.2422 7.8672-5.2422 7.8672 0"/>
  <path d="m175 241.85c0 5.2422-7.8633 5.2422-7.8633 0 0-5.2422 7.8633-5.2422 7.8633 0"/>
  <path d="m189.16 241.85c0 5.2422-7.8633 5.2422-7.8633 0 0-5.2422 7.8633-5.2422 7.8633 0"/>
  <path d="m203.32 241.85c0 5.2422-7.8672 5.2422-7.8672 0 0-5.2422 7.8672-5.2422 7.8672 0"/>
  <path d="m217.47 241.85c0 5.2422-7.8672 5.2422-7.8672 0 0-5.2422 7.8672-5.2422 7.8672 0"/>
  <path d="m231.62 241.85c0 5.2422-7.8672 5.2422-7.8672 0 0-5.2422 7.8672-5.2422 7.8672 0"/>
  <path d="m245.77 241.85c0 5.2422-7.8633 5.2422-7.8633 0 0-5.2422 7.8633-5.2422 7.8633 0"/>
  <path d="m259.93 241.85c0 5.2422-7.8633 5.2422-7.8633 0 0-5.2422 7.8633-5.2422 7.8633 0"/>
  <path d="m274.08 241.85c0 5.2422-7.8633 5.2422-7.8633 0 0-5.2422 7.8633-5.2422 7.8633 0"/>
  <path d="m288.24 241.85c0 5.2422-7.8672 5.2422-7.8672 0 0-5.2422 7.8672-5.2422 7.8672 0"/>
  <path d="m302.39 241.85c0 5.2422-7.8633 5.2422-7.8633 0 0-5.2422 7.8633-5.2422 7.8633 0"/>
  <path d="m316.54 241.85c0 5.2422-7.8633 5.2422-7.8633 0 0-5.2422 7.8633-5.2422 7.8633 0"/>
  <path d="m330.7 241.85c0 5.2422-7.8633 5.2422-7.8633 0 0-5.2422 7.8633-5.2422 7.8633 0"/>
  <path d="m344.86 241.85c0 5.2422-7.8672 5.2422-7.8672 0 0-5.2422 7.8672-5.2422 7.8672 0"/>
  <path d="m415.62 241.85c0 5.2422-7.8633 5.2422-7.8633 0 0-5.2422 7.8633-5.2422 7.8633 0"/>
  <path d="m429.78 241.85c0 5.2422-7.8633 5.2422-7.8633 0 0-5.2422 7.8633-5.2422 7.8633 0"/>
  <path d="m47.621 256c0 5.2422-7.8633 5.2422-7.8633 0s7.8633-5.2422 7.8633 0"/>
  <path d="m61.773 256c0 5.2422-7.8633 5.2422-7.8633 0s7.8633-5.2422 7.8633 0"/>
  <path d="m75.926 256c0 5.2422-7.8672 5.2422-7.8672 0s7.8672-5.2422 7.8672 0"/>
  <path d="m90.074 256c0 5.2422-7.8633 5.2422-7.8633 0s7.8633-5.2422 7.8633 0"/>
  <path d="m104.23 256c0 5.2422-7.8672 5.2422-7.8672 0s7.8672-5.2422 7.8672 0"/>
  <path d="m118.38 256c0 5.2422-7.8633 5.2422-7.8633 0s7.8633-5.2422 7.8633 0"/>
  <path d="m132.54 256c0 5.2422-7.8672 5.2422-7.8672 0s7.8672-5.2422 7.8672 0"/>
  <path d="m146.7 256c0 5.2422-7.8672 5.2422-7.8672 0s7.8672-5.2422 7.8672 0"/>
  <path d="m160.85 256c0 5.2422-7.8672 5.2422-7.8672 0s7.8672-5.2422 7.8672 0"/>
  <path d="m175 256c0 5.2422-7.8633 5.2422-7.8633 0s7.8633-5.2422 7.8633 0"/>
  <path d="m189.16 256c0 5.2422-7.8633 5.2422-7.8633 0s7.8633-5.2422 7.8633 0"/>
  <path d="m203.32 256c0 5.2422-7.8672 5.2422-7.8672 0s7.8672-5.2422 7.8672 0"/>
  <path d="m217.47 256c0 5.2422-7.8672 5.2422-7.8672 0s7.8672-5.2422 7.8672 0"/>
  <path d="m231.62 256c0 5.2422-7.8672 5.2422-7.8672 0s7.8672-5.2422 7.8672 0"/>
  <path d="m245.77 256c0 5.2422-7.8633 5.2422-7.8633 0s7.8633-5.2422 7.8633 0"/>
  <path d="m259.93 256c0 5.2422-7.8633 5.2422-7.8633 0s7.8633-5.2422 7.8633 0"/>
  <path d="m274.08 256c0 5.2422-7.8633 5.2422-7.8633 0s7.8633-5.2422 7.8633 0"/>
  <path d="m288.24 256c0 5.2422-7.8672 5.2422-7.8672 0s7.8672-5.2422 7.8672 0"/>
  <path d="m302.39 256c0 5.2422-7.8633 5.2422-7.8633 0s7.8633-5.2422 7.8633 0"/>
  <path d="m316.54 256c0 5.2422-7.8633 5.2422-7.8633 0s7.8633-5.2422 7.8633 0"/>
  <path d="m330.7 256c0 5.2422-7.8633 5.2422-7.8633 0s7.8633-5.2422 7.8633 0"/>
  <path d="m344.86 256c0 5.2422-7.8672 5.2422-7.8672 0s7.8672-5.2422 7.8672 0"/>
  <path d="m415.62 256c0 5.2422-7.8633 5.2422-7.8633 0s7.8633-5.2422 7.8633 0"/>
  <path d="m90.074 270.15c0 5.2422-7.8633 5.2422-7.8633 0 0-5.2422 7.8633-5.2422 7.8633 0"/>
  <path d="m104.23 270.15c0 5.2422-7.8672 5.2422-7.8672 0 0-5.2422 7.8672-5.2422 7.8672 0"/>
  <path d="m118.38 270.15c0 5.2422-7.8633 5.2422-7.8633 0 0-5.2422 7.8633-5.2422 7.8633 0"/>
  <path d="m132.54 270.15c0 5.2422-7.8672 5.2422-7.8672 0 0-5.2422 7.8672-5.2422 7.8672 0"/>
  <path d="m146.7 270.15c0 5.2422-7.8672 5.2422-7.8672 0 0-5.2422 7.8672-5.2422 7.8672 0"/>
  <path d="m160.85 270.15c0 5.2422-7.8672 5.2422-7.8672 0 0-5.2422 7.8672-5.2422 7.8672 0"/>
  <path d="m175 270.15c0 5.2422-7.8633 5.2422-7.8633 0 0-5.2422 7.8633-5.2422 7.8633 0"/>
  <path d="m189.16 270.15c0 5.2422-7.8633 5.2422-7.8633 0 0-5.2422 7.8633-5.2422 7.8633 0"/>
  <path d="m203.32 270.15c0 5.2422-7.8672 5.2422-7.8672 0 0-5.2422 7.8672-5.2422 7.8672 0"/>
  <path d="m217.47 270.15c0 5.2422-7.8672 5.2422-7.8672 0 0-5.2422 7.8672-5.2422 7.8672 0"/>
  <path d="m231.62 270.15c0 5.2422-7.8672 5.2422-7.8672 0 0-5.2422 7.8672-5.2422 7.8672 0"/>
  <path d="m245.77 270.15c0 5.2422-7.8633 5.2422-7.8633 0 0-5.2422 7.8633-5.2422 7.8633 0"/>
  <path d="m259.93 270.15c0 5.2422-7.8633 5.2422-7.8633 0 0-5.2422 7.8633-5.2422 7.8633 0"/>
  <path d="m274.08 270.15c0 5.2422-7.8633 5.2422-7.8633 0 0-5.2422 7.8633-5.2422 7.8633 0"/>
  <path d="m288.24 270.15c0 5.2422-7.8672 5.2422-7.8672 0 0-5.2422 7.8672-5.2422 7.8672 0"/>
  <path d="m302.39 270.15c0 5.2422-7.8633 5.2422-7.8633 0 0-5.2422 7.8633-5.2422 7.8633 0"/>
  <path d="m316.54 270.15c0 5.2422-7.8633 5.2422-7.8633 0 0-5.2422 7.8633-5.2422 7.8633 0"/>
  <path d="m330.7 270.15c0 5.2422-7.8633 5.2422-7.8633 0 0-5.2422 7.8633-5.2422 7.8633 0"/>
  <path d="m344.86 270.15c0 5.2422-7.8672 5.2422-7.8672 0 0-5.2422 7.8672-5.2422 7.8672 0"/>
  <path d="m415.62 270.15c0 5.2422-7.8633 5.2422-7.8633 0 0-5.2422 7.8633-5.2422 7.8633 0"/>
  <path d="m75.926 284.31c0 5.2422-7.8672 5.2422-7.8672 0s7.8672-5.2422 7.8672 0"/>
  <path d="m90.074 284.31c0 5.2422-7.8633 5.2422-7.8633 0s7.8633-5.2422 7.8633 0"/>
  <path d="m104.23 284.31c0 5.2422-7.8672 5.2422-7.8672 0s7.8672-5.2422 7.8672 0"/>
  <path d="m118.38 284.31c0 5.2422-7.8633 5.2422-7.8633 0s7.8633-5.2422 7.8633 0"/>
  <path d="m132.54 284.31c0 5.2422-7.8672 5.2422-7.8672 0s7.8672-5.2422 7.8672 0"/>
  <path d="m146.7 284.31c0 5.2422-7.8672 5.2422-7.8672 0s7.8672-5.2422 7.8672 0"/>
  <path d="m160.85 284.31c0 5.2422-7.8672 5.2422-7.8672 0s7.8672-5.2422 7.8672 0"/>
  <path d="m175 284.31c0 5.2422-7.8633 5.2422-7.8633 0s7.8633-5.2422 7.8633 0"/>
  <path d="m189.16 284.31c0 5.2422-7.8633 5.2422-7.8633 0s7.8633-5.2422 7.8633 0"/>
  <path d="m203.32 284.31c0 5.2422-7.8672 5.2422-7.8672 0s7.8672-5.2422 7.8672 0"/>
  <path d="m217.47 284.31c0 5.2422-7.8672 5.2422-7.8672 0s7.8672-5.2422 7.8672 0"/>
  <path d="m231.62 284.31c0 5.2422-7.8672 5.2422-7.8672 0s7.8672-5.2422 7.8672 0"/>
  <path d="m245.77 284.31c0 5.2422-7.8633 5.2422-7.8633 0s7.8633-5.2422 7.8633 0"/>
  <path d="m259.93 284.31c0 5.2422-7.8633 5.2422-7.8633 0s7.8633-5.2422 7.8633 0"/>
  <path d="m274.08 284.31c0 5.2422-7.8633 5.2422-7.8633 0s7.8633-5.2422 7.8633 0"/>
  <path d="m288.24 284.31c0 5.2422-7.8672 5.2422-7.8672 0s7.8672-5.2422 7.8672 0"/>
  <path d="m302.39 284.31c0 5.2422-7.8633 5.2422-7.8633 0s7.8633-5.2422 7.8633 0"/>
  <path d="m316.54 284.31c0 5.2422-7.8633 5.2422-7.8633 0s7.8633-5.2422 7.8633 0"/>
  <path d="m330.7 284.31c0 5.2422-7.8633 5.2422-7.8633 0s7.8633-5.2422 7.8633 0"/>
  <path d="m344.86 284.31c0 5.2422-7.8672 5.2422-7.8672 0s7.8672-5.2422 7.8672 0"/>
  <path d="m90.074 298.46c0 5.2422-7.8633 5.2422-7.8633 0 0-5.2422 7.8633-5.2422 7.8633 0"/>
  <path d="m118.38 298.46c0 5.2422-7.8633 5.2422-7.8633 0 0-5.2422 7.8633-5.2422 7.8633 0"/>
  <path d="m132.54 298.46c0 5.2422-7.8672 5.2422-7.8672 0 0-5.2422 7.8672-5.2422 7.8672 0"/>
  <path d="m146.7 298.46c0 5.2422-7.8672 5.2422-7.8672 0 0-5.2422 7.8672-5.2422 7.8672 0"/>
  <path d="m160.85 298.46c0 5.2422-7.8672 5.2422-7.8672 0 0-5.2422 7.8672-5.2422 7.8672 0"/>
  <path d="m175 298.46c0 5.2422-7.8633 5.2422-7.8633 0 0-5.2422 7.8633-5.2422 7.8633 0"/>
  <path d="m189.16 298.46c0 5.2422-7.8633 5.2422-7.8633 0 0-5.2422 7.8633-5.2422 7.8633 0"/>
  <path d="m203.32 298.46c0 5.2422-7.8672 5.2422-7.8672 0 0-5.2422 7.8672-5.2422 7.8672 0"/>
  <path d="m217.47 298.46c0 5.2422-7.8672 5.2422-7.8672 0 0-5.2422 7.8672-5.2422 7.8672 0"/>
  <path d="m231.62 298.46c0 5.2422-7.8672 5.2422-7.8672 0 0-5.2422 7.8672-5.2422 7.8672 0"/>
  <path d="m245.77 298.46c0 5.2422-7.8633 5.2422-7.8633 0 0-5.2422 7.8633-5.2422 7.8633 0"/>
  <path d="m259.93 298.46c0 5.2422-7.8633 5.2422-7.8633 0 0-5.2422 7.8633-5.2422 7.8633 0"/>
  <path d="m274.08 298.46c0 5.2422-7.8633 5.2422-7.8633 0 0-5.2422 7.8633-5.2422 7.8633 0"/>
  <path d="m288.24 298.46c0 5.2422-7.8672 5.2422-7.8672 0 0-5.2422 7.8672-5.2422 7.8672 0"/>
  <path d="m302.39 298.46c0 5.2422-7.8633 5.2422-7.8633 0 0-5.2422 7.8633-5.2422 7.8633 0"/>
  <path d="m316.54 298.46c0 5.2422-7.8633 5.2422-7.8633 0 0-5.2422 7.8633-5.2422 7.8633 0"/>
  <path d="m118.38 312.62c0 5.2422-7.8633 5.2422-7.8633 0 0-5.2422 7.8633-5.2422 7.8633 0"/>
  <path d="m132.54 312.62c0 5.2422-7.8672 5.2422-7.8672 0 0-5.2422 7.8672-5.2422 7.8672 0"/>
  <path d="m146.7 312.62c0 5.2422-7.8672 5.2422-7.8672 0 0-5.2422 7.8672-5.2422 7.8672 0"/>
  <path d="m160.85 312.62c0 5.2422-7.8672 5.2422-7.8672 0 0-5.2422 7.8672-5.2422 7.8672 0"/>
  <path d="m175 312.62c0 5.2422-7.8633 5.2422-7.8633 0 0-5.2422 7.8633-5.2422 7.8633 0"/>
  <path d="m189.16 312.62c0 5.2422-7.8633 5.2422-7.8633 0 0-5.2422 7.8633-5.2422 7.8633 0"/>
  <path d="m203.32 312.62c0 5.2422-7.8672 5.2422-7.8672 0 0-5.2422 7.8672-5.2422 7.8672 0"/>
  <path d="m217.47 312.62c0 5.2422-7.8672 5.2422-7.8672 0 0-5.2422 7.8672-5.2422 7.8672 0"/>
  <path d="m231.62 312.62c0 5.2422-7.8672 5.2422-7.8672 0 0-5.2422 7.8672-5.2422 7.8672 0"/>
  <path d="m245.77 312.62c0 5.2422-7.8633 5.2422-7.8633 0 0-5.2422 7.8633-5.2422 7.8633 0"/>
  <path d="m259.93 312.62c0 5.2422-7.8633 5.2422-7.8633 0 0-5.2422 7.8633-5.2422 7.8633 0"/>
  <path d="m274.08 312.62c0 5.2422-7.8633 5.2422-7.8633 0 0-5.2422 7.8633-5.2422 7.8633 0"/>
  <path d="m288.24 312.62c0 5.2422-7.8672 5.2422-7.8672 0 0-5.2422 7.8672-5.2422 7.8672 0"/>
  <path d="m302.39 312.62c0 5.2422-7.8633 5.2422-7.8633 0 0-5.2422 7.8633-5.2422 7.8633 0"/>
  <path d="m316.54 312.62c0 5.2422-7.8633 5.2422-7.8633 0 0-5.2422 7.8633-5.2422 7.8633 0"/>
  <path d="m118.38 326.77c0 5.2422-7.8633 5.2422-7.8633 0 0-5.2422 7.8633-5.2422 7.8633 0"/>
  <path d="m132.54 326.77c0 5.2422-7.8672 5.2422-7.8672 0 0-5.2422 7.8672-5.2422 7.8672 0"/>
  <path d="m146.7 326.77c0 5.2422-7.8672 5.2422-7.8672 0 0-5.2422 7.8672-5.2422 7.8672 0"/>
  <path d="m160.85 326.77c0 5.2422-7.8672 5.2422-7.8672 0 0-5.2422 7.8672-5.2422 7.8672 0"/>
  <path d="m175 326.77c0 5.2422-7.8633 5.2422-7.8633 0 0-5.2422 7.8633-5.2422 7.8633 0"/>
  <path d="m189.16 326.77c0 5.2422-7.8633 5.2422-7.8633 0 0-5.2422 7.8633-5.2422 7.8633 0"/>
  <path d="m203.32 326.77c0 5.2422-7.8672 5.2422-7.8672 0 0-5.2422 7.8672-5.2422 7.8672 0"/>
  <path d="m217.47 326.77c0 5.2422-7.8672 5.2422-7.8672 0 0-5.2422 7.8672-5.2422 7.8672 0"/>
  <path d="m231.62 326.77c0 5.2422-7.8672 5.2422-7.8672 0 0-5.2422 7.8672-5.2422 7.8672 0"/>
  <path d="m245.77 326.77c0 5.2422-7.8633 5.2422-7.8633 0 0-5.2422 7.8633-5.2422 7.8633 0"/>
  <path d="m259.93 326.77c0 5.2422-7.8633 5.2422-7.8633 0 0-5.2422 7.8633-5.2422 7.8633 0"/>
  <path d="m274.08 326.77c0 5.2422-7.8633 5.2422-7.8633 0 0-5.2422 7.8633-5.2422 7.8633 0"/>
  <path d="m288.24 326.77c0 5.2422-7.8672 5.2422-7.8672 0 0-5.2422 7.8672-5.2422 7.8672 0"/>
  <path d="m118.38 340.93c0 5.2422-7.8633 5.2422-7.8633 0 0-5.2422 7.8633-5.2422 7.8633 0"/>
  <path d="m132.54 340.93c0 5.2422-7.8672 5.2422-7.8672 0 0-5.2422 7.8672-5.2422 7.8672 0"/>
  <path d="m146.7 340.93c0 5.2422-7.8672 5.2422-7.8672 0 0-5.2422 7.8672-5.2422 7.8672 0"/>
  <path d="m160.85 340.93c0 5.2422-7.8672 5.2422-7.8672 0 0-5.2422 7.8672-5.2422 7.8672 0"/>
  <path d="m175 340.93c0 5.2422-7.8633 5.2422-7.8633 0 0-5.2422 7.8633-5.2422 7.8633 0"/>
  <path d="m189.16 340.93c0 5.2422-7.8633 5.2422-7.8633 0 0-5.2422 7.8633-5.2422 7.8633 0"/>
  <path d="m203.32 340.93c0 5.2422-7.8672 5.2422-7.8672 0 0-5.2422 7.8672-5.2422 7.8672 0"/>
  <path d="m217.47 340.93c0 5.2422-7.8672 5.2422-7.8672 0 0-5.2422 7.8672-5.2422 7.8672 0"/>
  <path d="m231.62 340.93c0 5.2422-7.8672 5.2422-7.8672 0 0-5.2422 7.8672-5.2422 7.8672 0"/>
  <path d="m245.77 340.93c0 5.2422-7.8633 5.2422-7.8633 0 0-5.2422 7.8633-5.2422 7.8633 0"/>
  <path d="m259.93 340.93c0 5.2422-7.8633 5.2422-7.8633 0 0-5.2422 7.8633-5.2422 7.8633 0"/>
  <path d="m274.08 340.93c0 5.2422-7.8633 5.2422-7.8633 0 0-5.2422 7.8633-5.2422 7.8633 0"/>
  <path d="m132.54 355.08c0 5.2422-7.8672 5.2422-7.8672 0s7.8672-5.2422 7.8672 0"/>
  <path d="m146.7 355.08c0 5.2422-7.8672 5.2422-7.8672 0s7.8672-5.2422 7.8672 0"/>
  <path d="m160.85 355.08c0 5.2422-7.8672 5.2422-7.8672 0s7.8672-5.2422 7.8672 0"/>
  <path d="m175 355.08c0 5.2422-7.8633 5.2422-7.8633 0s7.8633-5.2422 7.8633 0"/>
  <path d="m189.16 355.08c0 5.2422-7.8633 5.2422-7.8633 0s7.8633-5.2422 7.8633 0"/>
  <path d="m203.32 355.08c0 5.2422-7.8672 5.2422-7.8672 0s7.8672-5.2422 7.8672 0"/>
  <path d="m217.47 355.08c0 5.2422-7.8672 5.2422-7.8672 0s7.8672-5.2422 7.8672 0"/>
  <path d="m231.62 355.08c0 5.2422-7.8672 5.2422-7.8672 0s7.8672-5.2422 7.8672 0"/>
  <path d="m245.77 355.08c0 5.2422-7.8633 5.2422-7.8633 0s7.8633-5.2422 7.8633 0"/>
  <path d="m259.93 355.08c0 5.2422-7.8633 5.2422-7.8633 0s7.8633-5.2422 7.8633 0"/>
  <path d="m132.54 369.24c0 5.2422-7.8672 5.2422-7.8672 0 0-5.2422 7.8672-5.2422 7.8672 0"/>
  <path d="m146.7 369.24c0 5.2422-7.8672 5.2422-7.8672 0 0-5.2422 7.8672-5.2422 7.8672 0"/>
  <path d="m160.85 369.24c0 5.2422-7.8672 5.2422-7.8672 0 0-5.2422 7.8672-5.2422 7.8672 0"/>
  <path d="m175 369.24c0 5.2422-7.8633 5.2422-7.8633 0 0-5.2422 7.8633-5.2422 7.8633 0"/>
  <path d="m189.16 369.24c0 5.2422-7.8633 5.2422-7.8633 0 0-5.2422 7.8633-5.2422 7.8633 0"/>
  <path d="m203.32 369.24c0 5.2422-7.8672 5.2422-7.8672 0 0-5.2422 7.8672-5.2422 7.8672 0"/>
  <path d="m217.47 369.24c0 5.2422-7.8672 5.2422-7.8672 0 0-5.2422 7.8672-5.2422 7.8672 0"/>
  <path d="m231.62 369.24c0 5.2422-7.8672 5.2422-7.8672 0 0-5.2422 7.8672-5.2422 7.8672 0"/>
  <path d="m245.77 369.24c0 5.2422-7.8633 5.2422-7.8633 0 0-5.2422 7.8633-5.2422 7.8633 0"/>
  <path d="m132.54 383.39c0 5.2422-7.8672 5.2422-7.8672 0s7.8672-5.2422 7.8672 0"/>
  <path d="m146.7 383.39c0 5.2422-7.8672 5.2422-7.8672 0s7.8672-5.2422 7.8672 0"/>
  <path d="m160.85 383.39c0 5.2422-7.8672 5.2422-7.8672 0s7.8672-5.2422 7.8672 0"/>
  <path d="m175 383.39c0 5.2422-7.8633 5.2422-7.8633 0s7.8633-5.2422 7.8633 0"/>
  <path d="m189.16 383.39c0 5.2422-7.8633 5.2422-7.8633 0s7.8633-5.2422 7.8633 0"/>
  <path d="m203.32 383.39c0 5.2422-7.8672 5.2422-7.8672 0s7.8672-5.2422 7.8672 0"/>
  <path d="m217.47 383.39c0 5.2422-7.8672 5.2422-7.8672 0s7.8672-5.2422 7.8672 0"/>
  <path d="m146.7 397.54c0 5.2422-7.8672 5.2422-7.8672 0 0-5.2422 7.8672-5.2422 7.8672 0"/>
  <path d="m160.85 397.54c0 5.2422-7.8672 5.2422-7.8672 0 0-5.2422 7.8672-5.2422 7.8672 0"/>
  <path d="m175 397.54c0 5.2422-7.8633 5.2422-7.8633 0 0-5.2422 7.8633-5.2422 7.8633 0"/>
  <path d="m189.16 397.54c0 5.2422-7.8633 5.2422-7.8633 0 0-5.2422 7.8633-5.2422 7.8633 0"/>
  <path d="m203.32 397.54c0 5.2422-7.8672 5.2422-7.8672 0 0-5.2422 7.8672-5.2422 7.8672 0"/>
  <path d="m217.47 397.54c0 5.2422-7.8672 5.2422-7.8672 0 0-5.2422 7.8672-5.2422 7.8672 0"/>
  <path d="m146.7 411.7c0 5.2422-7.8672 5.2422-7.8672 0 0-5.2422 7.8672-5.2422 7.8672 0"/>
  <path d="m160.85 411.7c0 5.2422-7.8672 5.2422-7.8672 0 0-5.2422 7.8672-5.2422 7.8672 0"/>
  <path d="m175 411.7c0 5.2422-7.8633 5.2422-7.8633 0 0-5.2422 7.8633-5.2422 7.8633 0"/>
  <path d="m189.16 411.7c0 5.2422-7.8633 5.2422-7.8633 0 0-5.2422 7.8633-5.2422 7.8633 0"/>
  <path d="m203.32 411.7c0 5.2422-7.8672 5.2422-7.8672 0 0-5.2422 7.8672-5.2422 7.8672 0"/>
  <path d="m217.47 411.7c0 5.2422-7.8672 5.2422-7.8672 0 0-5.2422 7.8672-5.2422 7.8672 0"/>
  <path d="m160.85 425.85c0 5.2422-7.8672 5.2422-7.8672 0 0-5.2422 7.8672-5.2422 7.8672 0"/>
  <path d="m175 425.85c0 5.2422-7.8633 5.2422-7.8633 0 0-5.2422 7.8633-5.2422 7.8633 0"/>
  <path d="m189.16 425.85c0 5.2422-7.8633 5.2422-7.8633 0 0-5.2422 7.8633-5.2422 7.8633 0"/>
  <path d="m203.32 425.85c0 5.2422-7.8672 5.2422-7.8672 0 0-5.2422 7.8672-5.2422 7.8672 0"/>
  <path d="m217.47 425.85c0 5.2422-7.8672 5.2422-7.8672 0 0-5.2422 7.8672-5.2422 7.8672 0"/>
  <path d="m160.85 440c0 5.2422-7.8672 5.2422-7.8672 0 0-5.2461 7.8672-5.2461 7.8672 0"/>
  <path d="m175 440c0 5.2422-7.8633 5.2422-7.8633 0 0-5.2461 7.8633-5.2461 7.8633 0"/>
  <path d="m189.16 440c0 5.2422-7.8633 5.2422-7.8633 0 0-5.2461 7.8633-5.2461 7.8633 0"/>
  <path d="m203.32 440c0 5.2422-7.8672 5.2422-7.8672 0 0-5.2461 7.8672-5.2461 7.8672 0"/>
  <path d="m217.47 440c0 5.2422-7.8672 5.2422-7.8672 0 0-5.2461 7.8672-5.2461 7.8672 0"/>
  <path d="m175 454.16c0 5.2422-7.8633 5.2422-7.8633 0 0-5.2422 7.8633-5.2422 7.8633 0"/>
  <path d="m189.16 454.16c0 5.2422-7.8633 5.2422-7.8633 0 0-5.2422 7.8633-5.2422 7.8633 0"/>
  <path d="m203.32 454.16c0 5.2422-7.8672 5.2422-7.8672 0 0-5.2422 7.8672-5.2422 7.8672 0"/>
  <path d="m217.47 454.16c0 5.2422-7.8672 5.2422-7.8672 0 0-5.2422 7.8672-5.2422 7.8672 0"/>
  <path d="m175 468.32c0 5.2422-7.8633 5.2422-7.8633 0 0-5.2422 7.8633-5.2422 7.8633 0"/>
  <path d="m189.16 468.32c0 5.2422-7.8633 5.2422-7.8633 0 0-5.2422 7.8633-5.2422 7.8633 0"/>
  <path d="m203.32 468.32c0 5.2422-7.8672 5.2422-7.8672 0 0-5.2422 7.8672-5.2422 7.8672 0"/>
  <path d="m175 482.47c0 5.2422-7.8633 5.2422-7.8633 0s7.8633-5.2422 7.8633 0"/>
  <path d="m189.16 482.47c0 5.2422-7.8633 5.2422-7.8633 0s7.8633-5.2422 7.8633 0"/>
 </g>
</svg>
