<?xml version="1.0" encoding="UTF-8"?>
<svg width="512pt" height="512pt" version="1.1" viewBox="0 0 512 512" xmlns="http://www.w3.org/2000/svg">
 <path id="programmer" d="m102.56 199.46v-10.199 0.003906c0-2.9453 2.3906-5.332 5.3359-5.332 2.9453 0 5.332 2.3867 5.332 5.332v10.195c0 2.9492-2.3867 5.3359-5.332 5.3359-2.9453 0-5.3359-2.3867-5.3359-5.3359zm5.332-30.336h0.003906c1.4141 0 2.7695-0.55859 3.7695-1.5586s1.5625-2.3594 1.5625-3.7734v-10.195c0-2.9453-2.3867-5.3359-5.332-5.3359-2.9453 0-5.3359 2.3906-5.3359 5.3359v10.199-0.003906c0.007812 2.9414 2.3945 5.3242 5.3359 5.3242zm-15.934 12.664h3.3086c2.9453 0 5.332-2.3906 5.332-5.3359 0-2.9453-2.3867-5.332-5.332-5.332h-3.3086c-2.9453 0-5.332 2.3867-5.332 5.332 0 2.9453 2.3867 5.3359 5.332 5.3359zm28.691 0h3.3086c2.9453 0 5.332-2.3906 5.332-5.3359 0-2.9453-2.3867-5.332-5.332-5.332h-3.3086 0.003906c-2.9453 0-5.3359 2.3867-5.3359 5.332 0 2.9453 2.3906 5.3359 5.3359 5.3359zm108.52 149.49c0-3.8906 1.5508-7.6172 4.3008-10.367 2.75-2.7461 6.4805-4.2891 10.371-4.2891 3.8906 0.003906 7.6172 1.5508 10.367 4.3008s4.293 6.4805 4.293 10.371c0 3.8867-1.5469 7.6172-4.2969 10.367s-6.4805 4.293-10.371 4.293c-3.8906-0.003907-7.6172-1.5508-10.367-4.3047-2.75-2.75-4.2969-6.4805-4.2969-10.371zm10.668 0h-0.003906c0 1.6172 0.97656 3.0781 2.4688 3.6953 1.4961 0.62109 3.2188 0.27734 4.3594-0.86719 1.1445-1.1445 1.4883-2.8633 0.86719-4.3594-0.61719-1.4922-2.0781-2.4688-3.6953-2.4688-2.207 0.007813-3.9922 1.793-4 4zm192.57 60.297v0.003907c0 1.4141-0.5625 2.7695-1.5625 3.7695s-2.3555 1.5625-3.7734 1.5625h-366.47c-2.9453 0-5.332-2.3867-5.332-5.332 0-2.9492 2.3867-5.3359 5.332-5.3359h45.164c-1.6641-1.7852-3.1172-3.7539-4.332-5.8672-2.8008-4.9961-4.1875-10.664-4.0195-16.391 0.17188-5.7266 1.8945-11.297 4.9883-16.121l37.172-59.062-1.375-11.211 0.003907 0.003906c-0.5625-4.5508 0.85156-9.125 3.8867-12.559 3.0352-3.4336 7.3984-5.4023 11.984-5.4062h56.414c3.918-6.5547 5.9414-14.07 5.8477-21.707-7.4688-2.75-13.914-7.7188-18.477-14.242-4.5586-6.5195-7.0156-14.281-7.0391-22.238v-28.648l-27.266-40.414v-0.003907c-1.1016-1.6328-1.2148-3.7422-0.29297-5.4844 0.92578-1.7422 2.7383-2.832 4.7109-2.8359h14.539l-14.402-25.578c-0.99609-1.7656-0.90625-3.9492 0.23828-5.625s3.1406-2.5625 5.1484-2.2773l80.844 11.285c11.992 1.7227 22.965 7.6992 30.918 16.84s12.355 20.836 12.398 32.953v49.793-0.003906c-0.027344 8.0898-2.5703 15.973-7.2773 22.551s-11.348 11.527-18.992 14.164c-0.070312 7.5586 1.9531 14.992 5.8438 21.473h56.406c4.5859 0 8.9531 1.9648 11.988 5.4023 3.0391 3.4336 4.457 8.0078 3.8945 12.562l-1.3867 11.211 37.172 59.051c3.0898 4.8242 4.8047 10.402 4.9688 16.129 0.16406 5.7305-1.2344 11.395-4.0391 16.391-1.2188 2.1133-2.668 4.0781-4.3203 5.8672h45.164-0.003907c2.9453 0 5.3359 2.3867 5.3359 5.3359zm-202.59-161.77h28.801c1.7891-0.007812 3.5781-0.1875 5.332-0.53125 0.45703-0.19141 0.9375-0.32031 1.4297-0.375 6.1484-1.5078 11.613-5.0312 15.527-10.008 3.9102-4.9766 6.0469-11.117 6.0625-17.449v-49.789c-0.035156-9.5469-3.5039-18.762-9.7695-25.965-6.2656-7.2031-14.914-11.914-24.363-13.27l-70.164-9.793 15.73 27.863c0.72266 1.2344 0.92187 2.707 0.54687 4.0859-0.37109 1.3828-1.2812 2.5547-2.5273 3.2578-1.2461 0.69922-2.7227 0.87109-4.0938 0.47656-1.375-0.39453-2.5352-1.3242-3.2148-2.582l-0.58594-1.0664h-10.559l22.57 33.469c0.070313 0.15234 0.13672 0.30469 0.19141 0.46094 0.17188 0.31641 0.30859 0.64844 0.41406 0.99219 0.10938 0.34766 0.17969 0.70312 0.21484 1.0664 0 0.17188 0.097656 0.32031 0.097656 0.49219v30.324h-0.003906c0.015625 7.5156 3.0078 14.719 8.3242 20.031 5.3164 5.3125 12.523 8.3008 20.039 8.3086zm-7.2422 29.867h42.52c-2.5664-6.1523-4.0117-12.711-4.2695-19.371-0.73437 0-1.4297 0.21484-2.1328 0.21484h-28.801c-1.0039 0-1.9531-0.21484-2.9336-0.28906-0.28516 6.6797-1.7695 13.25-4.3828 19.402zm-73.836 16.586 1.3984 11.34c0.42578 0.95703 0.55469 2.0195 0.375 3.0508l11.734 94.828h-0.003907c0 0.24609-0.019531 0.49219-0.050781 0.73438h163.35c-0.015625-0.24609-0.015625-0.49219 0-0.73438l11.668-94.828h0.003906c-0.17969-1.0312-0.050781-2.0938 0.37109-3.0508l1.3984-11.34c0.19141-1.5234-0.28516-3.0586-1.3086-4.207-1.0195-1.1484-2.4883-1.7969-4.0234-1.7852h-179.62c-1.5391-0.011719-3.0039 0.63672-4.0273 1.7852-1.0195 1.1484-1.4961 2.6836-1.3086 4.207zm-12.199 109.98h14.934l-4.7148-38.273v0.003907c-5.9492-0.36719-11.918-0.24609-17.848 0.35938h-0.61719c-2.9453 0.16797-5.4688-2.082-5.6367-5.0273-0.16797-2.9453 2.082-5.4688 5.0273-5.6367 5.8945-0.63672 11.828-0.80078 17.75-0.50391l-3.8945-31.68-30.207 48c-2.7188 4.3242-3.7969 9.4805-3.0391 14.531 0.75781 5.0508 3.3047 9.6602 7.1719 12.992 3.8711 3.3359 8.8086 5.168 13.914 5.1719zm221.66 0c5.1094 0 10.047-1.8359 13.918-5.168 3.8711-3.3359 6.418-7.9492 7.1758-13.004 0.75781-5.0508-0.32422-10.207-3.0469-14.531l-30.199-48-3.9023 31.68c5.9219-0.29297 11.863-0.125 17.758 0.5 2.9453 0.16797 5.1992 2.6914 5.0312 5.6406-0.16797 2.9453-2.6914 5.1953-5.6367 5.0273-0.20703 0.011719-0.41406 0.011719-0.62109 0-5.9297-0.62109-11.902-0.74609-17.855-0.375l-4.7148 38.281h22.09zm-50.922 32h-0.003906c-2.1562 0-4.1016 1.3008-4.9258 3.293-0.82422 1.9922-0.37109 4.2852 1.1562 5.8125 1.5234 1.5234 3.8203 1.9805 5.8125 1.1562 1.9922-0.82422 3.293-2.7695 3.293-4.9258 0-2.9375-2.375-5.3242-5.3125-5.3359zm32 0h-0.003906c-2.1562 0-4.1016 1.3008-4.9258 3.293-0.82422 1.9922-0.37109 4.2852 1.1562 5.8125 1.5234 1.5234 3.8203 1.9805 5.8125 1.1562 1.9922-0.82422 3.293-2.7695 3.293-4.9258 0-2.9375-2.375-5.3242-5.3125-5.3359zm32 0h-0.003906c-2.1562 0-4.1016 1.3008-4.9258 3.293-0.82422 1.9922-0.37109 4.2852 1.1562 5.8125 1.5234 1.5234 3.8203 1.9805 5.8125 1.1562 1.9922-0.82422 3.293-2.7695 3.293-4.9258 0-2.9375-2.375-5.3242-5.3125-5.3359zm85.441-308.5v45.332h-0.003906c0 7.0742-2.8086 13.855-7.8125 18.855-5 5.0039-11.781 7.8125-18.855 7.8125h-45.609l-23.797 26.25c-1.0117 1.1172-2.4492 1.75-3.957 1.75-0.65625-0.003906-1.3086-0.12109-1.9219-0.35156-2.0586-0.79688-3.4141-2.7773-3.4141-4.9844v-22.953c-6.3164-0.94531-12.086-4.1289-16.258-8.9688-4.168-4.8438-6.4609-11.02-6.4609-17.41v-45.332c0-7.0742 2.8086-13.855 7.8125-18.855 5-5.0039 11.781-7.8125 18.855-7.8125h74.773c7.0703 0 13.855 2.8086 18.855 7.8125 5 5 7.8086 11.781 7.8086 18.855zm-10.668 0h-0.003906c0-4.2422-1.6836-8.3125-4.6836-11.312-3.0039-3.0039-7.0703-4.6875-11.316-4.6875h-74.773c-4.2422 0-8.3125 1.6836-11.312 4.6875-3 3-4.6875 7.0703-4.6875 11.312v45.332c0 4.2422 1.6875 8.3125 4.6875 11.312 3 3.0039 7.0703 4.6875 11.312 4.6875h1.3867c1.4141 0 2.7734 0.5625 3.7734 1.5625s1.5625 2.3555 1.5625 3.7695v14.145l16.105-17.727c1.0117-1.1133 2.4414-1.75 3.9453-1.75h48c4.2461 0 8.3125-1.6836 11.316-4.6875 3-3 4.6836-7.0703 4.6836-11.312zm-71.723 4.4805h-0.003906c-0.97656-1.0234-2.3203-1.6172-3.7344-1.6484-1.4141-0.03125-2.7852 0.5-3.8047 1.4766l-14.871 14.219c-1.0508 1.0078-1.6484 2.3984-1.6484 3.8555 0 1.457 0.59766 2.8516 1.6484 3.8555l14.871 14.219c2.1289 2.0352 5.5039 1.9609 7.5391-0.16797 0.98047-1.0234 1.5078-2.3945 1.4766-3.8086-0.03125-1.4141-0.625-2.7578-1.6445-3.7344l-10.836-10.355 10.836-10.367v-0.003907c1.0312-0.96484 1.6367-2.3047 1.6836-3.7188 0.046875-1.4141-0.47266-2.7891-1.4414-3.8203zm44.223-0.17188c-2.1328-2.0391-5.5117-1.9648-7.5469 0.16406-2.0391 2.1328-1.9648 5.5078 0.16406 7.5469l10.836 10.367-10.836 10.355v0.003906c-2.1289 2.0391-2.2031 5.418-0.16406 7.5469 2.0352 2.1289 5.4141 2.2031 7.5469 0.16406l14.871-14.219h-0.003906c1.0547-1.0039 1.6484-2.3984 1.6484-3.8555 0-1.457-0.59375-2.8477-1.6484-3.8555zm-16.777-0.96094h-0.003907c-1.2734-0.60938-2.7422-0.69141-4.0742-0.21875-1.3359 0.46875-2.4297 1.4492-3.0391 2.7266l-13.609 28.449c-0.61328 1.2734-0.69141 2.7422-0.22266 4.0742 0.47266 1.3359 1.4531 2.4297 2.7266 3.0391 0.72266 0.34375 1.5078 0.51953 2.3047 0.52344 2.0547 0 3.9258-1.1797 4.8125-3.0312l13.598-28.445c0.625-1.2773 0.71484-2.7461 0.25-4.0898-0.46484-1.3398-1.4453-2.4414-2.7227-3.0586z"/>
</svg>
