<svg xmlns="http://www.w3.org/2000/svg" xmlns:xlink="http://www.w3.org/1999/xlink" version="1.1" x="0px" y="0px" viewBox="0 0 64 64" enable-background="new 0 0 64 64" xml:space="preserve"><metadata><?xpacket begin="&#65279;" id="W5M0MpCehiHzreSzNTczkc9d"?><x:xmpmeta xmlns:x="adobe:ns:meta/" x:xmptk="Adobe XMP Core 5.3-c011 66.145661, 2012/02/06-14:56:27        "></x:xmpmeta><?xpacket end="w"?></metadata><g><g id="car"><path d="M63,22H52c-0.553,0-1,0.447-1,1c0,2.596,0.526,4.312,1.187,5.76c-1.362-0.366-2.478-1.12-3.784-2.016    C46.111,25.173,43.291,23.24,38,23.021V22c0-0.553-0.447-1-1-1s-1,0.447-1,1v1h-1c-0.354,0-0.683,0.188-0.862,0.494    c-0.18,0.306-0.184,0.684-0.011,0.993C34.136,24.503,35,26.104,35,28h-5c-2.366,0-3.517,1.555-3.874,3H19.89    c-1.263-1.235-2.988-2-4.89-2c-2.209,0-4.18,1.032-5.464,2.636c-5.21,1.561-6.86,5.579-7.34,7.364H1c-0.552,0-1,0.447-1,1    s0.448,1,1,1h9.11c1.263,1.235,2.988,2,4.89,2s3.626-0.765,4.89-2H47.11c1.264,1.235,2.988,2,4.89,2c2.785,0,5.188-1.64,6.314-4    H61c1.654,0,3-1.346,3-3V23C64,22.447,63.553,22,63,22z M4.289,39c0.442-1.269,1.504-3.324,3.919-4.663    C8.077,34.871,8,35.426,8,36c0,1.074,0.25,2.089,0.685,3H4.289z M15,41c-2.757,0-5-2.243-5-5s2.243-5,5-5s5,2.243,5,5    S17.757,41,15,41z M26,39h-4.685C21.75,38.089,22,37.074,22,36s-0.25-2.089-0.685-3H26V39z M62,24v2h-8.67    c-0.144-0.592-0.252-1.241-0.3-2H62z M30,30h5.928c0.502,0,0.927-0.372,0.991-0.87C36.975,28.708,37,28.35,37,28    c0-1.157-0.243-2.207-0.503-3H37c5.325,0,7.84,1.725,10.271,3.394c0.624,0.428,1.24,0.844,1.882,1.218    C47.002,30.574,45.428,32.59,45.08,35H41c-1.723,0-2.771-0.629-3.985-1.357C35.731,32.873,34.277,32,32,32h-4    C28,31.666,28.096,30,30,30z M28,34h4c1.723,0,2.771,0.629,3.985,1.357C37.269,36.127,38.723,37,41,37h4.08    c0.102,0.706,0.309,1.378,0.605,2H28V34z M52,41c-2.757,0-5-2.243-5-5s2.243-5,5-5s5,2.243,5,5S54.757,41,52,41z M61,37h-2.08    c0.047-0.327,0.08-0.659,0.08-1c0-2.813-1.672-5.237-4.07-6.349c-0.055-0.146-0.141-0.274-0.253-0.379    c-0.226-0.425-0.441-0.843-0.641-1.272H62v8C62,36.552,61.552,37,61,37z"></path><path d="M15,33c-1.654,0-3,1.346-3,3s1.346,3,3,3s3-1.346,3-3S16.654,33,15,33z M15,37c-0.551,0-1-0.448-1-1s0.449-1,1-1    s1,0.448,1,1S15.551,37,15,37z"></path><path d="M52,33c-1.654,0-3,1.346-3,3s1.346,3,3,3s3-1.346,3-3S53.654,33,52,33z M52,37c-0.552,0-1-0.448-1-1s0.448-1,1-1    s1,0.448,1,1S52.552,37,52,37z"></path></g></g></svg>
