<?xml version="1.0" encoding="UTF-8"?>
<svg width="512pt" height="512pt" version="1.1" viewBox="0 0 512 512" xmlns="http://www.w3.org/2000/svg">
 <g id="science">
  <path d="m282.81 477.88c-3.7305-0.003906-7.4375-0.63281-10.965-1.8633l-119.5-42.551c-4.0469-1.4766-8.3242-2.2227-12.629-2.207h-24.992c-2.5703 0-4.6523-2.082-4.6523-4.6523v-118.46c0-2.5703 2.082-4.6523 4.6523-4.6523h40.566c14.578-0.011719 29.043 2.5508 42.734 7.5625l56.051 20.48h64.637c7.3711 0.015625 14.414 3.0703 19.465 8.4414 4.6328 4.8203 7.043 11.359 6.6367 18.031-0.15625 2.5234-0.70312 5.0078-1.6133 7.3633l101.08-31.641c5.9844-2.6797 12.785-2.8984 18.926-0.60156s11.133 6.9219 13.891 12.871 3.0625 12.746 0.84375 18.918c-0.12891 0.39453-0.29297 0.78125-0.49219 1.1484-2.3906 5.6953-6.8047 10.305-12.395 12.93l-165.91 94.562c-4.9766 2.8359-10.605 4.3242-16.336 4.3242zm-163.43-55.93h20.336c5.3867-0.011719 10.734 0.92188 15.797 2.7617l5.4414 1.9531 113.98 40.574c6.4805 2.2695 13.625 1.625 19.594-1.7695l166.23-94.707c3.7266-1.6602 6.6602-4.6992 8.1875-8.4844 0.066406-0.16016 0.14062-0.3125 0.22266-0.46484 1.4062-3.8867 1.2109-8.1719-0.53906-11.918-1.75-3.7461-4.9102-6.6445-8.793-8.0625-3.8828-1.418-8.168-1.2422-11.918 0.49219-0.19141 0.085937-0.38281 0.16016-0.58203 0.22266l-117.54 36.793c-3.1211 1.3477-6.4883 2.043-9.8906 2.0391h-70.285 0.003906c-2.5703 0-4.6562-2.082-4.6562-4.6523 0-2.5703 2.0859-4.6562 4.6562-4.6562h70.285-0.003906c0.90625 0 1.8125-0.078125 2.707-0.23047l3.8945-1.2227v-0.003906c1.6758-0.77734 3.2031-1.8359 4.5195-3.1328 2.6484-2.7031 4.2383-6.2617 4.4883-10.039 0.22656-4.1055-1.2695-8.125-4.1328-11.078-3.293-3.5-7.8789-5.4883-12.68-5.5h-65.445c-0.54297 0-1.0859-0.09375-1.6016-0.28125l-56.824-20.785c-12.664-4.6328-26.047-6.9961-39.531-6.9844h-35.91z"/>
  <path d="m100.65 465.92h-49.34 0.003906c-4.9688-0.011719-9.7266-1.9883-13.238-5.5039-3.5117-3.5117-5.4844-8.2734-5.4922-13.242v-161.49c0.007813-4.9688 1.9844-9.7344 5.4961-13.246 3.5156-3.5156 8.2773-5.4922 13.246-5.5h49.34c4.9688 0.007813 9.7344 1.9844 13.25 5.4961 3.5117 3.5156 5.4883 8.2812 5.4922 13.25v161.49c-0.003906 4.9727-1.9844 9.7383-5.5 13.254-3.5156 3.5117-8.2852 5.4883-13.258 5.4922zm-49.34-189.67 0.003906-0.003906c-5.207 0.015625-9.418 4.2344-9.4219 9.4414v161.49c0.007813 5.207 4.2266 9.4258 9.4336 9.4336h49.34c5.2109-0.007813 9.4297-4.2305 9.4336-9.4375v-161.48c-0.003906-5.2109-4.2266-9.4297-9.4336-9.4375z"/>
  <path d="m74.316 442.65c-4.2734-0.007813-8.3672-1.707-11.383-4.7305-3.0195-3.0234-4.7109-7.1211-4.7109-11.391 0.003906-4.2734 1.6992-8.3672 4.7227-11.387 3.0195-3.0234 7.1133-4.7188 11.383-4.7227 4.2734 0 8.3711 1.6914 11.395 4.7109 3.0195 3.0156 4.7227 7.1094 4.7305 11.383 0 4.2773-1.6992 8.3828-4.7266 11.41-3.0273 3.0273-7.1328 4.7266-11.41 4.7266zm0-22.914c-1.8047-0.023437-3.5391 0.6875-4.8164 1.9609-1.2734 1.2773-1.9844 3.0117-1.9609 4.8164-0.011718 2.7539 1.6406 5.2461 4.1875 6.3086 2.543 1.0586 5.4766 0.48047 7.4258-1.4688 1.9531-1.9531 2.5312-4.8867 1.4727-7.4297-1.0625-2.5469-3.5547-4.1992-6.3086-4.1875z"/>
  <path d="m321.21 317.59c-34.262 0-61.094-62.25-61.094-141.71 0-79.465 26.832-141.75 61.094-141.75 34.262 0 61.133 62.258 61.133 141.75 0 79.492-26.852 141.71-61.133 141.71zm0-274.15c-28.078 0-51.785 60.648-51.785 132.44 0 71.793 23.711 132.4 51.785 132.4 28.078 0 51.824-60.633 51.824-132.41 0-71.77-23.734-132.44-51.824-132.44z"/>
  <path d="m401.29 264.68c-29.598 0-69.816-12.359-110.6-35.895-32.227-18.617-59.578-41.328-77.047-63.98-18.32-23.77-23.707-45.008-15.164-59.801 17.137-29.688 84.488-21.805 153.32 17.934 68.812 39.73 109.3 94.109 92.16 123.81-6.9766 12.074-22.309 17.93-42.672 17.93zm-160.75-168.42c-16.523 0-28.766 4.3281-33.977 13.402-6.4375 11.148-1.1602 29.176 14.477 49.465 16.734 21.719 43.133 43.594 74.328 61.602 62.156 35.883 126.52 45.664 140.57 21.355 14.039-24.312-26.637-75.195-88.789-111.08-38.98-22.508-78.836-34.742-106.61-34.742z"/>
  <path d="m241.16 264.68c-20.363 0-35.684-5.8516-42.664-17.941-8.5469-14.801-3.168-36.051 15.145-59.828 17.453-22.652 44.812-45.379 77.047-63.984 32.215-18.617 65.562-30.926 93.91-34.715 29.73-3.9648 50.836 1.9922 59.383 16.797 8.5469 14.805 3.1523 36.027-15.164 59.797-17.449 22.652-44.816 45.371-77.012 63.965-40.785 23.543-81.039 35.91-110.64 35.91zm160.32-168.33c-5.2305 0.027344-10.457 0.39844-15.645 1.1133-27.168 3.625-59.305 15.535-90.488 33.547-31.184 18.012-57.594 39.895-74.328 61.609-15.629 20.293-20.902 38.336-14.457 49.492 14.039 24.305 78.41 14.523 140.59-21.375 31.184-18.004 57.566-39.875 74.297-61.586 15.629-20.289 20.91-38.316 14.473-49.465-5.0273-8.7305-17.25-13.336-34.441-13.336z"/>
  <path d="m321.26 200.69c-6.5898 0.003906-12.91-2.6094-17.57-7.2617-4.6641-4.6562-7.2852-10.977-7.2852-17.562-0.003906-6.5898 2.6133-12.91 7.2734-17.566 4.6562-4.6602 10.977-7.2773 17.566-7.2734 6.5859 0 12.906 2.6211 17.562 7.2812 4.6562 4.6641 7.2656 10.984 7.2617 17.574-0.015625 6.5742-2.6328 12.875-7.2812 17.527-4.6523 4.6484-10.953 7.2656-17.527 7.2812zm0-40.355c-4.1172-0.007813-8.0703 1.6211-10.984 4.5273-2.9141 2.9102-4.5586 6.8555-4.5625 10.973-0.007813 4.1172 1.6211 8.0664 4.5312 10.98 2.9062 2.918 6.8516 4.5586 10.969 4.5664 4.1172 0.003907 8.0664-1.625 10.98-4.5312 2.918-2.9062 4.5586-6.8516 4.5664-10.969-0.003906-4.1172-1.6367-8.0586-4.543-10.973-2.9023-2.9141-6.8438-4.5586-10.957-4.5742z"/>
 </g>
</svg>
